<svg width="24" height="24" viewBox="0 0 24 24" fill="none" xmlns="http://www.w3.org/2000/svg">
<path fill-rule="evenodd" clip-rule="evenodd" d="M6.94336 14.332C9.60901 14.332 11.7773 16.5004 11.7773 19.166C11.7772 21.8314 9.60895 24 6.94336 24C4.27785 23.9999 2.10947 21.8315 2.10938 19.166C2.10938 16.5004 4.27779 14.3321 6.94336 14.332ZM6.94336 17.0635C6.55062 17.0636 6.23262 17.3817 6.23242 17.7744V18.4541H5.55273C5.15979 18.4541 4.84082 18.7731 4.84082 19.166C4.84092 19.5587 5.15985 19.877 5.55273 19.877H6.23242V20.5566C6.23242 20.9493 6.5505 21.2685 6.94336 21.2686C7.33612 21.2686 7.65527 20.9494 7.65527 20.5566V19.877H8.33496C8.72749 19.8768 9.0458 19.5586 9.0459 19.166C9.0459 18.7732 8.72755 18.4543 8.33496 18.4541H7.65527V17.7744C7.65508 17.3816 7.336 17.0635 6.94336 17.0635Z" fill="currentColor"/>
<path fill-rule="evenodd" clip-rule="evenodd" d="M17.3174 3.83984C17.3176 4.23201 17.6351 4.55005 18.0273 4.55078L21.9258 4.55762V21.2305C21.9255 21.6232 21.6065 21.9414 21.2139 21.9414H12.5498C12.9658 21.1045 13.2002 20.1622 13.2002 19.166C13.2002 16.5998 11.647 14.3899 9.43164 13.4258H17.376C17.7689 13.4258 18.0879 13.1068 18.0879 12.7139C18.0879 12.3211 17.7689 12.0029 17.376 12.0029H8.80859C8.41578 12.0031 8.09769 12.3212 8.09766 12.7139C8.09766 12.8278 8.12543 12.9351 8.17285 13.0303C7.77533 12.9508 7.36377 12.9092 6.94336 12.9092C6.09199 12.9092 5.27967 13.0804 4.53906 13.3896V0.710938C4.53929 0.31819 4.85836 0 5.25098 0H17.3174V3.83984ZM8.80859 9.20508C8.41578 9.20521 8.09769 9.52318 8.09766 9.91602C8.09766 10.3087 8.41576 10.6278 8.80859 10.6279H17.376C17.7689 10.6279 18.0879 10.3088 18.0879 9.91602C18.0879 9.5231 17.7689 9.20508 17.376 9.20508H8.80859ZM8.80859 6.40625C8.41576 6.40638 8.09766 6.72548 8.09766 7.11816C8.09772 7.51097 8.4158 7.82897 8.80859 7.8291H14.1045C14.497 7.82887 14.8154 7.51091 14.8154 7.11816C14.8154 6.72536 14.4971 6.40648 14.1045 6.40625H8.80859Z" fill="currentColor"/>
<path d="M21.2666 3.13379L18.7402 3.12891V0.606445L21.2666 3.13379Z" fill="currentColor"/>
</svg>
