<svg width="24" height="24" viewBox="0 0 24 24" fill="none" xmlns="http://www.w3.org/2000/svg">
<path d="M6.77637 11.1152C7.86748 11.8512 9.1815 12.2812 10.5938 12.2812C11.6826 12.2812 12.7122 12.0247 13.627 11.5703C13.0411 12.5294 12.7031 13.6556 12.7031 14.8594C12.7031 18.3487 15.5419 21.1875 19.0312 21.1875C19.7699 21.1875 20.4791 21.0598 21.1387 20.8262C21.1392 20.8685 21.1406 20.9109 21.1406 20.9531V23.2969C21.1406 23.6852 20.8258 24 20.4375 24H0.75C0.361688 24 0.046876 23.6852 0.046875 23.2969V20.9531C0.046875 18.136 1.14368 15.4872 3.13574 13.4951C4.18955 12.4413 5.42734 11.6382 6.77637 11.1152Z" fill="currentColor"/>
<path fill-rule="evenodd" clip-rule="evenodd" d="M19.0312 9.9375C21.7452 9.9375 23.9531 12.1455 23.9531 14.8594C23.9531 17.5733 21.7452 19.7812 19.0312 19.7812C16.3173 19.7812 14.1094 17.5733 14.1094 14.8594C14.1094 12.1455 16.3173 9.9375 19.0312 9.9375ZM19.0312 12.75C18.6429 12.75 18.3281 13.0648 18.3281 13.4531V14.1562H17.625C17.2367 14.1562 16.9219 14.4711 16.9219 14.8594C16.9219 15.2477 17.2367 15.5625 17.625 15.5625H18.3281V16.2656C18.3281 16.6539 18.6429 16.9688 19.0312 16.9688C19.4196 16.9688 19.7344 16.6539 19.7344 16.2656V15.5625H20.4375C20.8258 15.5625 21.1406 15.2477 21.1406 14.8594C21.1406 14.4711 20.8258 14.1562 20.4375 14.1562H19.7344V13.4531C19.7344 13.0648 19.4196 12.75 19.0312 12.75Z" fill="currentColor"/>
<path d="M10.5938 0C13.592 0 16.0312 2.43923 16.0312 5.4375C16.0312 8.43577 13.592 10.875 10.5938 10.875C7.59548 10.875 5.15625 8.43577 5.15625 5.4375C5.15625 2.43923 7.59548 0 10.5938 0Z" fill="currentColor"/>
</svg>
