<svg width="24" height="24" viewBox="0 0 24 24" fill="none" xmlns="http://www.w3.org/2000/svg">
<path d="M4.38006 10.5649H19.6202C19.815 10.5649 19.9919 10.4536 20.0761 10.2783C20.1606 10.1034 20.1371 9.89521 20.0161 9.74341L12.3958 0.190516C12.2997 0.0700837 12.1542 0 12.0004 0C11.8465 0 11.7008 0.0700837 11.6049 0.190516L3.98435 9.74341C3.86316 9.89546 3.83963 10.1034 3.92414 10.2783C4.00839 10.4536 4.18524 10.5649 4.38006 10.5649Z" fill="currentColor"/>
<path d="M19.6199 13.4353H4.38006C4.18549 13.4353 4.00839 13.5464 3.92414 13.722C3.83963 13.8968 3.86316 14.105 3.98435 14.2566L11.6047 23.8097C11.7008 23.9302 11.8463 24.0003 12.0001 24.0003C12.154 24.0003 12.2997 23.9302 12.3956 23.8097L20.0154 14.2566C20.1366 14.1045 20.1599 13.8968 20.0754 13.722C19.9916 13.5464 19.8148 13.4353 19.6199 13.4353Z" fill="currentColor"/>
</svg>
