<svg width="24" height="24" viewBox="0 0 24 24" fill="none" xmlns="http://www.w3.org/2000/svg">
<path d="M7.88234 0V4.23529H6.47058V0H5.05985V4.23529H3.64808V0H0.823517V4.23529H2.23528V7.05882H9.29411V4.23529H10.7059V0H7.88234Z" fill="currentColor"/>
<path d="M9.29411 8.47059H2.23528V9.88235H6.47058V11.2941H2.23528V12.7059H5.05881V14.1176H2.23528V15.5294H9.29411V8.47059Z" fill="currentColor"/>
<path d="M2.23528 16.9412V20.4706C2.23528 22.4167 3.81858 24 5.76469 24C7.71081 24 9.29411 22.4167 9.29411 20.4706V16.9412H2.23528Z" fill="currentColor"/>
<path d="M21.9292 9.83445L17.5294 2.92052L13.1296 9.83449C12.3136 11.1167 11.8823 12.5978 11.8823 14.1176C11.8823 17.2314 14.4156 19.7647 17.5294 19.7647C20.6432 19.7647 23.1765 17.2314 23.1765 14.1176C23.1765 12.5978 22.7452 11.1167 21.9292 9.83445ZM19.647 14.5882H18.2353V16H16.8235V14.5882H15.4118V13.1765H16.8235V11.7647H18.2353V13.1765H19.647V14.5882Z" fill="currentColor"/>
</svg>
