<svg width="24" height="24" viewBox="0 0 24 24" fill="none" xmlns="http://www.w3.org/2000/svg">
<path d="M7.07812 19.7812H5.67188V18.375H7.07812V19.7812Z" fill="currentColor"/>
<path d="M12.7031 19.7812H11.2969V18.375H12.7031V19.7812Z" fill="currentColor"/>
<path d="M18.3281 19.7812H16.9219V18.375H18.3281V19.7812Z" fill="currentColor"/>
<path d="M7.07812 14.1562H5.67188V12.75H7.07812V14.1562Z" fill="currentColor"/>
<path d="M12.7031 14.1562H11.2969V12.75H12.7031V14.1562Z" fill="currentColor"/>
<path d="M18.3281 14.1562H16.9219V12.75H18.3281V14.1562Z" fill="currentColor"/>
<path fill-rule="evenodd" clip-rule="evenodd" d="M23.9531 21.8906C23.9531 23.0538 23.0069 24 21.8438 24H2.15625C0.993094 24 0.046875 23.0538 0.046875 21.8906V9.9375H23.9531V21.8906ZM4.96875 16.9688C4.58011 16.9688 4.26562 17.2832 4.26562 17.6719V20.4844C4.26562 20.873 4.58011 21.1875 4.96875 21.1875H7.78125C8.16989 21.1875 8.48438 20.873 8.48438 20.4844V17.6719C8.48438 17.2832 8.16989 16.9688 7.78125 16.9688H4.96875ZM10.5938 16.9688C10.2051 16.9688 9.89062 17.2832 9.89062 17.6719V20.4844C9.89062 20.873 10.2051 21.1875 10.5938 21.1875H13.4062C13.7949 21.1875 14.1094 20.873 14.1094 20.4844V17.6719C14.1094 17.2832 13.7949 16.9688 13.4062 16.9688H10.5938ZM16.2188 16.9688C15.8301 16.9688 15.5156 17.2832 15.5156 17.6719V20.4844C15.5156 20.873 15.8301 21.1875 16.2188 21.1875H19.0312C19.4199 21.1875 19.7344 20.873 19.7344 20.4844V17.6719C19.7344 17.2832 19.4199 16.9688 19.0312 16.9688H16.2188ZM4.96875 11.3438C4.58011 11.3438 4.26562 11.6582 4.26562 12.0469V14.8594C4.26562 15.248 4.58011 15.5625 4.96875 15.5625H7.78125C8.16989 15.5625 8.48438 15.248 8.48438 14.8594V12.0469C8.48438 11.6582 8.16989 11.3438 7.78125 11.3438H4.96875ZM10.5938 11.3438C10.2051 11.3438 9.89062 11.6582 9.89062 12.0469V14.8594C9.89062 15.248 10.2051 15.5625 10.5938 15.5625H13.4062C13.7949 15.5625 14.1094 15.248 14.1094 14.8594V12.0469C14.1094 11.6582 13.7949 11.3438 13.4062 11.3438H10.5938ZM16.2188 11.3438C15.8301 11.3438 15.5156 11.6582 15.5156 12.0469V14.8594C15.5156 15.248 15.8301 15.5625 16.2188 15.5625H19.0312C19.4199 15.5625 19.7344 15.248 19.7344 14.8594V12.0469C19.7344 11.6582 19.4199 11.3438 19.0312 11.3438H16.2188Z" fill="currentColor"/>
<path d="M16.2188 4.21875C16.2188 5.76989 17.4801 7.03125 19.0312 7.03125C20.5824 7.03125 21.8438 5.76989 21.8438 4.21875V2.8125C23.0069 2.8125 23.9531 3.75872 23.9531 4.92188V8.53125H0.046875V4.92188C0.046875 3.75872 0.993094 2.8125 2.15625 2.8125V4.21875C2.15625 5.76989 3.41761 7.03125 4.96875 7.03125C6.51989 7.03125 7.78125 5.76989 7.78125 4.21875V2.8125H16.2188V4.21875Z" fill="currentColor"/>
<path d="M4.96875 0C5.74542 0 6.375 0.629578 6.375 1.40625V4.21875C6.375 4.99542 5.74542 5.625 4.96875 5.625C4.19208 5.625 3.5625 4.99542 3.5625 4.21875V1.40625C3.5625 0.629578 4.19208 0 4.96875 0Z" fill="currentColor"/>
<path d="M19.0312 0C19.8079 0 20.4375 0.629578 20.4375 1.40625V4.21875C20.4375 4.99542 19.8079 5.625 19.0312 5.625C18.2546 5.625 17.625 4.99542 17.625 4.21875V1.40625C17.625 0.629578 18.2546 0 19.0312 0Z" fill="currentColor"/>
</svg>
