<svg width="24" height="24" viewBox="0 0 24 24" fill="none" xmlns="http://www.w3.org/2000/svg">
<path d="M5.71196 20.9141C4.93092 21.6952 3.66391 21.6952 2.88286 20.9141C2.10209 20.1331 2.10206 18.867 2.88286 18.086L9.07036 11.8995L2.88286 5.71199C2.10182 4.93095 2.10182 3.66394 2.88286 2.88289C3.66391 2.10185 4.93092 2.10184 5.71196 2.88289L11.8995 9.07039L18.086 2.88289C18.867 2.10207 20.1331 2.10211 20.9141 2.88289C21.6952 3.66394 21.6952 4.93095 20.9141 5.712L14.7276 11.8995L20.9141 18.086C21.6952 18.8671 21.6952 20.1331 20.9141 20.9141C20.1331 21.6952 18.867 21.6952 18.086 20.9141L11.8995 14.7276L5.71196 20.9141Z" fill="currentColor"/>
</svg>
