<svg width="24" height="24" viewBox="0 0 24 24" fill="none" xmlns="http://www.w3.org/2000/svg">
<path d="M16.0084 6.10313C16.0084 7.10395 16.8232 7.91856 17.8238 7.91856H22.3258V21.7203C22.3258 22.0545 22.0544 22.3258 21.7203 22.3258H4.69297C4.35884 22.3258 4.08751 22.0545 4.08751 21.7203V19.569C4.5056 19.6966 4.98875 19.6581 5.37754 19.4645C5.61748 20.1607 6.27957 20.6626 7.05626 20.6627H8.90586C9.68112 20.6626 10.3416 20.1625 10.5826 19.4684C11.2415 19.7949 12.0941 19.6535 12.609 19.1227L13.9098 17.8219C14.459 17.2722 14.5723 16.4479 14.2486 15.7858C14.9455 15.5461 15.4479 14.8842 15.4479 14.107V12.2662C15.4478 11.4891 14.9455 10.8271 14.2486 10.5875C14.5722 9.92536 14.459 9.10197 13.9098 8.55235L12.609 7.2506C12.0919 6.71749 11.2347 6.57832 10.5748 6.90977C10.335 6.21335 9.67288 5.71163 8.8961 5.71153H7.05626C6.27945 5.71161 5.61739 6.21333 5.37754 6.90977C4.9887 6.71602 4.50569 6.67666 4.08751 6.80431V2.27989C4.08751 1.94576 4.35884 1.67442 4.69297 1.67442H16.0084V6.10313Z" fill="currentColor"/>
<path d="M6.36778 13.1852C6.4519 11.1465 9.35463 11.1459 9.43907 13.1852C9.43907 14.0328 8.74971 14.7223 7.90294 14.7223C7.0563 14.7221 6.36778 14.0326 6.36778 13.1852Z" fill="currentColor"/>
<path fill-rule="evenodd" clip-rule="evenodd" d="M8.8961 6.88145C9.23008 6.88158 9.50052 7.15195 9.50059 7.48595V8.02208C9.86428 8.1291 10.2145 8.27382 10.5475 8.45567L10.9264 8.07774C11.1517 7.8432 11.5565 7.8432 11.7818 8.07774L13.0826 9.37852C13.3187 9.61472 13.3186 9.99774 13.0826 10.234L12.7037 10.6139C12.8855 10.9473 13.0303 11.2976 13.1373 11.6617H13.6725C14.0065 11.6617 14.2778 11.9322 14.2779 12.2662V14.107C14.2779 14.4412 14.0066 14.7125 13.6725 14.7125H13.1373C13.0303 15.0766 12.8856 15.427 12.7037 15.7604L13.0826 16.1393C13.3187 16.3755 13.3187 16.7585 13.0826 16.9947L11.7818 18.2965C11.5565 18.5308 11.1517 18.5308 10.9264 18.2965L10.5475 17.9176C10.2159 18.0993 9.86907 18.2447 9.51036 18.3512V18.8873C9.51036 19.2214 9.23994 19.4927 8.90586 19.4928H7.05626C6.72222 19.4927 6.45176 19.2214 6.45176 18.8873V18.3512C6.08802 18.2441 5.73798 18.0994 5.40489 17.9176L5.02598 18.2965C4.80068 18.5308 4.39578 18.5308 4.17051 18.2965L2.86973 16.9947C2.63366 16.7585 2.63366 16.3755 2.86973 16.1393L3.24864 15.7604C3.06684 15.427 2.92204 15.0766 2.81504 14.7125H2.27989C1.94576 14.7125 1.67442 14.4412 1.67442 14.107V12.2662C1.67455 11.9322 1.94584 11.6617 2.27989 11.6617H2.81407C2.92108 11.2976 3.06681 10.9473 3.24864 10.6139L2.86973 10.234C2.63372 9.99775 2.63368 9.61474 2.86973 9.37852L4.17051 8.07774C4.39582 7.8432 4.80067 7.8432 5.02598 8.07774L5.40489 8.45567C5.73792 8.27388 6.0881 8.12909 6.45176 8.02208V7.48595C6.45183 7.15193 6.72225 6.88155 7.05626 6.88145H8.8961ZM7.90294 10.4381C6.3891 10.4383 5.15783 11.6704 5.15782 13.1852C5.3081 16.8287 10.4982 16.8297 10.649 13.1852C10.649 11.6704 9.4169 10.4381 7.90294 10.4381Z" fill="currentColor"/>
<path d="M22.3258 6.7086H17.8238C17.4904 6.7086 17.2184 6.43674 17.2184 6.10313V1.67442L22.3258 6.7086Z" fill="currentColor"/>
</svg>
