<svg width="24" height="24" viewBox="0 0 24 24" fill="none" xmlns="http://www.w3.org/2000/svg">
<path d="M20.4853 3.51471C18.2188 1.24823 15.2053 0 12 0C8.79474 0 5.78119 1.24823 3.51471 3.51471C1.24823 5.78119 0 8.79474 0 12C0 15.2054 1.24823 18.2188 3.51471 20.4853C5.78119 22.7518 8.79474 24 12 24C15.2053 24 18.2188 22.7518 20.4853 20.4853C22.7518 18.2188 24 15.2054 24 12C24 8.79474 22.7518 5.78119 20.4853 3.51471ZM17.1903 15.5328C17.6479 15.9906 17.6479 16.7325 17.1903 17.1901C16.9614 17.419 16.6615 17.5334 16.3616 17.5334C16.0616 17.5334 15.7617 17.419 15.5328 17.1901L12 13.6573L8.46716 17.1903C8.23828 17.419 7.93835 17.5334 7.63843 17.5334C7.3385 17.5334 7.03857 17.419 6.80969 17.1903C6.35211 16.7325 6.35211 15.9906 6.80969 15.533L10.3427 12L6.80969 8.46716C6.35211 8.0094 6.35211 7.26746 6.80969 6.80988C7.26746 6.35211 8.0094 6.35211 8.46698 6.80988L12 10.3427L15.5328 6.80988C15.9906 6.35229 16.7325 6.35211 17.1901 6.80988C17.6479 7.26746 17.6479 8.0094 17.1901 8.46716L13.6573 12L17.1903 15.5328Z" fill="currentColor"/>
</svg>
