<svg width="24" height="24" viewBox="0 0 24 24" fill="none" xmlns="http://www.w3.org/2000/svg">
<path d="M5.625 0V7.82812C5.625 8.21677 5.93948 8.53125 6.32812 8.53125H17.6719C18.0605 8.53125 18.375 8.21677 18.375 7.82812V0.0449219C19.1379 0.145281 19.8464 0.477242 20.3994 1.03027L22.9697 3.64746C23.6337 4.3114 24 5.2414 24 6.18066V21.8906C24 23.0538 23.0538 24 21.8906 24H19.7812V12.0469C19.7812 11.6582 19.4668 11.3438 19.0781 11.3438H4.92188C4.53323 11.3438 4.21875 11.6582 4.21875 12.0469V24H2.10938C0.946219 24 0 23.0538 0 21.8906V2.10938C0 0.946219 0.946219 0 2.10938 0H5.625Z" fill="currentColor"/>
<path fill-rule="evenodd" clip-rule="evenodd" d="M18.375 24H5.625V15.5625H18.375V24ZM7.73438 19.7812C7.34573 19.7812 7.03125 20.0957 7.03125 20.4844C7.03125 20.873 7.34573 21.1875 7.73438 21.1875H16.2656C16.6543 21.1875 16.9688 20.873 16.9688 20.4844C16.9688 20.0957 16.6543 19.7812 16.2656 19.7812H7.73438ZM7.73438 16.9688C7.34573 16.9688 7.03125 17.2832 7.03125 17.6719C7.03125 18.0605 7.34573 18.375 7.73438 18.375H16.2656C16.6543 18.375 16.9688 18.0605 16.9688 17.6719C16.9688 17.2832 16.6543 16.9688 16.2656 16.9688H7.73438Z" fill="currentColor"/>
<path d="M18.375 14.1562H5.625V12.75H18.375V14.1562Z" fill="currentColor"/>
<path d="M11.3438 7.125H7.03125V0H11.3438V7.125Z" fill="currentColor"/>
<path d="M14.1562 7.125H12.75V0H14.1562V7.125Z" fill="currentColor"/>
<path d="M16.9688 7.125H15.5625V0H16.9688V7.125Z" fill="currentColor"/>
</svg>
