<svg width="24" height="24" viewBox="0 0 24 24" fill="none" xmlns="http://www.w3.org/2000/svg">
<path fill-rule="evenodd" clip-rule="evenodd" d="M14.1094 0V4.92188C14.1094 6.08503 15.0556 7.03125 16.2188 7.03125H21.1406V21.8906C21.1406 23.0538 20.1944 24 19.0312 24H4.96875C3.80559 24 2.85938 23.0538 2.85938 21.8906V2.10938C2.85938 0.946219 3.80559 0 4.96875 0H14.1094ZM7.78125 18.3281C7.39261 18.3281 7.07812 18.6426 7.07812 19.0312C7.07812 19.4199 7.39261 19.7344 7.78125 19.7344H13.4062C13.7949 19.7344 14.1094 19.4199 14.1094 19.0312C14.1094 18.6426 13.7949 18.3281 13.4062 18.3281H7.78125ZM7.78125 15.5156C7.39261 15.5156 7.07812 15.8301 7.07812 16.2188C7.07812 16.6074 7.39261 16.9219 7.78125 16.9219H16.2188C16.6074 16.9219 16.9219 16.6074 16.9219 16.2188C16.9219 15.8301 16.6074 15.5156 16.2188 15.5156H7.78125ZM7.78125 12.7031C7.39261 12.7031 7.07812 13.0176 7.07812 13.4062C7.07812 13.7949 7.39261 14.1094 7.78125 14.1094H16.2188C16.6074 14.1094 16.9219 13.7949 16.9219 13.4062C16.9219 13.0176 16.6074 12.7031 16.2188 12.7031H7.78125ZM7.78125 9.89062C7.39261 9.89062 7.07812 10.2051 7.07812 10.5938C7.07812 10.9824 7.39261 11.2969 7.78125 11.2969H16.2188C16.6074 11.2969 16.9219 10.9824 16.9219 10.5938C16.9219 10.2051 16.6074 9.89062 16.2188 9.89062H7.78125Z" fill="currentColor"/>
<path d="M20.7285 5.625H16.2188C15.8308 5.625 15.5156 5.30981 15.5156 4.92188V0.412109L20.7285 5.625Z" fill="currentColor"/>
</svg>
