<svg width="24" height="24" viewBox="0 0 24 24" fill="none" xmlns="http://www.w3.org/2000/svg">
<path d="M20.6663 20.8008C21.1955 20.8008 21.6288 21.2282 21.6185 21.7607V23.041C21.6183 23.5666 21.1885 24 20.6595 24H3.34013C2.81465 23.9998 2.38132 23.5699 2.38115 23.041V21.7607C2.38115 21.2351 2.81116 20.801 3.34013 20.8008H20.6663Z" fill="currentColor"/>
<path d="M12.6468 0C13.1724 0 13.6056 0.429964 13.6058 0.958984V13.6318L16.9788 10.2559C17.3577 9.88372 17.966 9.88372 18.3382 10.2559L19.2464 11.1641C19.6181 11.543 19.6183 12.1505 19.2464 12.5225L12.6849 19.084C12.5005 19.2718 12.2539 19.3672 12.0081 19.3672C11.7659 19.3671 11.52 19.2717 11.3323 19.084L4.76396 12.5254C4.39212 12.1499 4.39201 11.539 4.76396 11.167L5.67216 10.2588C6.04762 9.88679 6.65841 9.88693 7.03056 10.2588L10.4075 13.6357V0.958984C10.4077 0.426583 10.8376 8.45703e-05 11.3665 0H12.6468Z" fill="currentColor"/>
</svg>
