<svg width="24" height="24" viewBox="0 0 24 24" fill="none" xmlns="http://www.w3.org/2000/svg">
<path d="M22.1342 1.8501C19.666 -0.616699 15.6513 -0.616699 13.1832 1.8501L7.96478 7.0685L13.8895 12.9932C15.1089 11.9778 16.6549 11.342 18.3619 11.342C19.3411 11.342 20.2728 11.5453 21.1206 11.9085L22.1342 10.8012C24.6017 8.33366 24.6017 4.3183 22.1342 1.8501Z" fill="currentColor"/>
<path d="M12.9033 13.9958L6.97032 8.06291L1.86292 13.1753C-0.604534 15.6428 -0.604534 19.6582 1.86292 22.1263C4.33103 24.593 8.39261 24.6401 10.8608 22.1732L11.8962 21.1328C11.533 20.2851 11.3296 19.3533 11.3296 18.3742C11.3297 16.711 11.9343 15.2012 12.9033 13.9958Z" fill="currentColor"/>
<path d="M12.7361 18.3742C12.7361 21.2404 14.8873 23.5795 17.6587 23.9291V12.8193C14.8873 13.169 12.7361 15.508 12.7361 18.3742Z" fill="currentColor"/>
<path d="M19.0651 12.8193V23.9291C21.8365 23.5795 23.9877 21.2404 23.9877 18.3742C23.9877 15.508 21.8365 13.169 19.0651 12.8193Z" fill="currentColor"/>
</svg>
