<svg width="24" height="24" viewBox="0 0 24 24" fill="none" xmlns="http://www.w3.org/2000/svg">
<path d="M8.74121 10.2875C8.51093 10.5178 8.3343 10.8028 8.23145 11.1117L7.2373 14.0941C6.98301 14.8569 7.17843 15.6845 7.74707 16.2533C8.14541 16.6516 8.67493 16.8714 9.23828 16.8715C9.46537 16.8715 9.69003 16.8348 9.90527 16.7631L12.8887 15.7679C13.1973 15.665 13.4824 15.4895 13.7129 15.2591L20.1562 8.81579V21.4222C20.1561 22.8437 18.9996 24.0004 17.5781 24.0004H2.57812C1.15664 24.0004 0.000145207 22.8437 0 21.4222V6.42224C0 5.00066 1.15655 3.84411 2.57812 3.84411H15.1846L8.74121 10.2875Z" fill="currentColor"/>
<path d="M21.502 5.48083L12.7188 14.264C12.6417 14.3411 12.5477 14.3994 12.4443 14.434L9.46094 15.4291C9.20835 15.5133 8.92955 15.4474 8.74121 15.2591C8.55295 15.0708 8.48712 14.792 8.57129 14.5394L9.56543 11.556C9.5999 11.4526 9.65828 11.3587 9.73535 11.2816L18.5195 2.49743L21.502 5.48083Z" fill="currentColor"/>
<path d="M20.6738 0.343134C21.1315 -0.114328 21.8735 -0.114428 22.3311 0.343134L23.6572 1.66931C24.1145 2.12691 24.1146 2.86897 23.6572 3.32653L22.4971 4.48669L19.5137 1.50329L20.6738 0.343134Z" fill="currentColor"/>
</svg>
