<svg width="24" height="24" viewBox="0 0 24 24" fill="none" xmlns="http://www.w3.org/2000/svg">
<path d="M21.2174 10.543C21.4066 10.2846 21.7461 10.1858 22.0436 10.3037C22.341 10.4215 22.5209 10.7255 22.4821 11.043C21.7859 16.7279 17.1024 21.071 11.444 21.4053V22.501C11.444 23.5364 10.8574 24 10.277 24C9.89663 23.9999 9.51817 23.8144 9.15298 23.4492L5.16861 19.4639C4.29358 18.5887 4.29286 17.1651 5.16763 16.29L9.15298 12.3047C9.51817 11.9395 9.89663 11.754 10.277 11.7539C10.8574 11.7539 11.4438 12.2178 11.444 13.2529V14.46C12.025 14.5643 12.6126 14.6172 13.1969 14.6172C16.3515 14.6172 19.3503 13.0942 21.2174 10.543Z" fill="currentColor"/>
<path d="M13.7106 0C14.091 6.94274e-05 14.4686 0.185584 14.8336 0.550781L18.82 4.53613C19.6947 5.41118 19.6948 6.835 18.82 7.70996L14.8336 11.6953C14.4687 12.0602 14.0909 12.246 13.7106 12.2461C13.3222 12.2461 12.9795 12.0479 12.7711 11.7021C12.6202 11.4518 12.5437 11.1301 12.5436 10.7471V9.54004C11.9626 9.43572 11.375 9.38282 10.7907 9.38281C7.63614 9.38281 4.63748 10.9066 2.77017 13.458C2.63465 13.6428 2.42195 13.7451 2.20279 13.7451C2.11623 13.7451 2.02818 13.7296 1.944 13.6963C1.64667 13.5785 1.46667 13.2744 1.50552 12.957C2.20167 7.27192 6.88545 2.92907 12.5436 2.59473V1.49902C12.5436 0.463605 13.13 0 13.7106 0Z" fill="currentColor"/>
</svg>
