<svg width="24" height="24" viewBox="0 0 24 24" fill="none" xmlns="http://www.w3.org/2000/svg">
<path d="M16.3606 7.11552V1.81828C16.3607 1.7542 16.3482 1.69072 16.3238 1.63149C16.2994 1.57225 16.2636 1.51842 16.2184 1.47307C16.1733 1.42771 16.1196 1.39173 16.0605 1.36719C16.0015 1.34264 15.9381 1.33 15.8742 1.33H11.5876C11.5236 1.33 11.4603 1.34264 11.4012 1.36719C11.3422 1.39173 11.2885 1.42771 11.2433 1.47307C11.1981 1.51842 11.1623 1.57225 11.1379 1.63149C11.1135 1.69072 11.101 1.7542 11.1011 1.81828V6.32521C11.1008 6.41509 11.1254 6.50329 11.1721 6.58002C11.2188 6.65674 11.2858 6.71898 11.3657 6.7598C13.8923 8.02729 15.9414 10.0806 17.2062 12.6124C17.2467 12.6926 17.3086 12.7598 17.385 12.8066C17.4615 12.8535 17.5495 12.878 17.6391 12.8776H22.1827C22.3118 12.8776 22.4356 12.8262 22.527 12.7348C22.6183 12.6434 22.6698 12.5195 22.67 12.3901V8.0946C22.6698 7.96524 22.6183 7.84126 22.527 7.74987C22.4356 7.65849 22.3118 7.60716 22.1827 7.60716H16.8479C16.7836 7.60705 16.7201 7.59423 16.6608 7.56945C16.6015 7.54466 16.5477 7.50839 16.5024 7.46271C16.4571 7.41704 16.4213 7.36286 16.397 7.30328C16.3726 7.2437 16.3603 7.1799 16.3606 7.11552Z" fill="currentColor"/>
<path d="M17.7296 18.4903C17.7296 16.5606 17.2792 14.5639 16.488 12.9388C16.488 12.9388 16.4571 12.8625 16.4085 12.8809C16.4085 12.8809 16.3591 12.8868 16.3599 12.9749V14.5807C16.3599 14.6167 16.3641 14.6528 16.3641 14.6889V18.6253C16.3641 18.7546 16.3129 18.8786 16.2217 18.97C16.1304 19.0614 16.0067 19.1128 15.8777 19.1128H11.5936C11.5293 19.1128 11.4657 19.1001 11.4063 19.0754C11.3469 19.0507 11.293 19.0146 11.2476 18.969C11.2021 18.9234 11.1661 18.8693 11.1416 18.8097C11.1171 18.7502 11.1045 18.6864 11.1046 18.622V13.3726C11.1046 13.2426 11.0531 13.118 10.9614 13.0261C10.8697 12.9342 10.7454 12.8826 10.6157 12.8826H5.27083C5.14182 12.8826 5.01809 12.8312 4.92687 12.7398C4.83565 12.6484 4.7844 12.5244 4.7844 12.3952V8.09881C4.78417 7.96923 4.83527 7.84486 4.92647 7.753C5.01767 7.66114 5.14152 7.6093 5.27083 7.60885H10.8325C10.9163 7.60885 10.9246 7.55432 10.9246 7.55432C10.9339 7.49895 10.8669 7.47462 10.8669 7.47462C9.19684 6.6556 7.36205 6.23002 5.50274 6.23043C4.50247 6.23005 3.50595 6.3529 2.5356 6.59622C2.28308 6.65796 2.05381 6.79168 1.87552 6.98122C1.69723 7.17075 1.57754 7.40798 1.53092 7.66422C1.46478 8.04344 1.41622 8.42768 1.38273 8.81697C1.35092 9.17856 1.32999 9.54267 1.32999 9.91182C1.32999 13.2945 2.67056 16.5387 5.05696 18.9311C7.44336 21.3236 10.6802 22.6684 14.0559 22.67C14.4243 22.67 14.7868 22.649 15.1443 22.6171C15.535 22.5847 15.9187 22.5352 16.2955 22.4686C16.5511 22.4217 16.7877 22.3017 16.9768 22.1231C17.166 21.9445 17.2995 21.7148 17.3613 21.4619C17.6051 20.4902 17.7288 19.4922 17.7296 18.4903Z" fill="currentColor"/>
</svg>
