<svg width="24" height="24" viewBox="0 0 24 24" fill="none" xmlns="http://www.w3.org/2000/svg">
<path d="M22.5938 13.4062V18.7969H14.1562V20.2031H22.5938V24H24V13.4062H22.5938Z" fill="currentColor"/>
<path d="M18.8438 15.5156H14.1562V17.3906H21.1403C20.9226 16.3221 19.9756 15.5156 18.8438 15.5156Z" fill="currentColor"/>
<path d="M10.6406 0H2.10938C0.946266 0 0 0.946266 0 2.10938V21.4219H12.75V2.10938C12.75 0.946266 11.8037 0 10.6406 0ZM5.20312 19.0781H3.79688V7.17188H5.20312V19.0781ZM8.95312 19.0781H7.54688V7.17188H8.95312V19.0781ZM11.3438 4.07025C10.5061 4.52911 9.44934 4.46897 8.66962 3.88894L8.25 3.57684L7.83038 3.88898C6.95991 4.53647 5.79014 4.53647 4.91963 3.88898L4.5 3.57684L4.08037 3.88898C3.30066 4.46897 2.24391 4.52911 1.40625 4.07025V2.10938C1.40625 1.72167 1.72167 1.40625 2.10938 1.40625H10.6406C11.0283 1.40625 11.3438 1.72167 11.3438 2.10938V4.07025Z" fill="currentColor"/>
<path d="M1.40625 22.8281H0V24H1.40625V22.8281Z" fill="currentColor"/>
<path d="M12.75 22.8281H11.3438V24H12.75V22.8281Z" fill="currentColor"/>
</svg>
