<svg width="24" height="24" viewBox="0 0 24 24" fill="none" xmlns="http://www.w3.org/2000/svg">
<path d="M19.5 9C17.02 9 15 6.98 15 4.5C15 3.59 15.275 2.71 15.785 1.97C14.4 2.09 13.07 2.645 12.005 3.565C10.795 2.515 9.27 1.94 7.655 1.94C5.875 1.94 4.205 2.635 2.95 3.89C1.695 5.145 1 6.815 1 8.585C1 10.355 1.675 11.98 2.895 13.225C2.915 13.25 2.93 13.275 2.95 13.295L11.645 21.995C11.74 22.085 11.87 22.14 12.005 22.14C12.14 22.14 12.265 22.085 12.36 21.995L21.055 13.295C21.055 13.295 21.095 13.25 21.11 13.225C22.635 11.665 23.275 9.52 22.905 7.44C22.055 8.43 20.82 9 19.5 9ZM19 11H14.945L13.125 13.08C13.03 13.19 12.895 13.25 12.75 13.25H12.695C12.535 13.23 12.39 13.135 12.315 12.995L9.815 8.5L8.65 10.73C8.56 10.895 8.39 11 8.205 11H5C4.725 11 4.5 10.775 4.5 10.5C4.5 10.225 4.725 10 5 10H7.905L9.36 7.215C9.445 7.05 9.615 6.95 9.795 6.945C9.985 6.955 10.15 7.045 10.24 7.205L12.84 11.885L14.34 10.17C14.435 10.06 14.575 10 14.715 10H19C19.275 10 19.5 10.225 19.5 10.5C19.5 10.775 19.275 11 19 11Z" fill="currentColor"/>
<path d="M19.5 8C20.675 8 21.77 7.415 22.42 6.425C22.46 6.365 22.495 6.305 22.54 6.235C22.84 5.71 23 5.11 23 4.5C23 2.57 21.43 1 19.5 1C19.045 1 18.61 1.085 18.21 1.25C17.71 1.45 17.255 1.77 16.885 2.175C16.315 2.815 16 3.64 16 4.5C16 6.43 17.57 8 19.5 8ZM18.15 3.83H18.815V3.165C18.815 2.795 19.115 2.5 19.48 2.5C19.845 2.5 20.145 2.8 20.145 3.165V3.83H20.81C21.18 3.83 21.475 4.13 21.475 4.495C21.475 4.86 21.175 5.16 20.81 5.16H20.145V5.825C20.145 6.195 19.845 6.49 19.48 6.49C19.115 6.49 18.815 6.19 18.815 5.825V5.16H18.15C17.78 5.16 17.485 4.86 17.485 4.495C17.485 4.13 17.785 3.83 18.15 3.83Z" fill="currentColor"/>
</svg>
