<svg width="24" height="24" viewBox="0 0 24 24" fill="none" xmlns="http://www.w3.org/2000/svg">
<path d="M20.4846 3.38906C20.8728 3.38917 21.1877 3.70394 21.1877 4.09219V23.2973C21.1875 23.6853 20.8727 24.0003 20.4846 24.0004H6.90937C6.52119 24.0004 6.20646 23.6854 6.20625 23.2973V22.017H17.091C18.2539 22.0168 19.2004 21.0706 19.2004 19.9076V3.38906H20.4846Z" fill="currentColor"/>
<path d="M17.091 0.000389099C17.4791 0.000599429 17.7941 0.315331 17.7941 0.703514V19.9076C17.7941 20.2958 17.4791 20.6105 17.091 20.6107H3.51582C3.12751 20.6107 2.81269 20.2959 2.81269 19.9076V5.91933H8.03437C8.42265 5.91933 8.73745 5.60448 8.7375 5.21621V0.000389099H17.091Z" fill="currentColor"/>
<path d="M7.33125 4.51308H3.2248L7.33125 0.411522V4.51308Z" fill="currentColor"/>
</svg>
