<svg width="24" height="24" viewBox="0 0 24 24" fill="none" xmlns="http://www.w3.org/2000/svg">
<path d="M12.3637 14.9092C12.3638 15.5116 12.8521 16 13.4545 16H22.5454V22.9092C22.5453 23.5116 22.057 24 21.4545 24H6.90865C6.30641 23.9998 5.81787 23.5115 5.81783 22.9092V6.90918C5.81783 6.30685 6.30638 5.8186 6.90865 5.81836H12.3637V14.9092Z" fill="currentColor"/>
<path d="M10.5454 0C11.0201 0 11.4228 0.304121 11.5727 0.727539H17.0913C17.6936 0.727731 18.1821 1.21601 18.1821 1.81836V7.00781L17.5424 6.36914L16.0883 4.91406C16.0597 4.88545 16.0304 4.85779 16.0004 4.83105V2.90918H13.7544C13.6043 3.33249 13.2017 3.63672 12.727 3.63672H6.90865C6.43408 3.63653 6.03122 3.33247 5.8813 2.90918H3.63619V21.0908H2.54537C1.94293 21.0908 1.45455 20.6024 1.45455 20V1.81836C1.45455 1.21592 1.94293 0.727587 2.54537 0.727539H8.06294C8.21291 0.304121 8.6165 0 9.09126 0H10.5454Z" fill="currentColor"/>
<path d="M21.9067 13.8184H14.5454V6.45703L21.9067 13.8184Z" fill="currentColor"/>
</svg>
