<svg width="24" height="24" viewBox="0 0 24 24" fill="none" xmlns="http://www.w3.org/2000/svg">
<path d="M15.4668 18.7423C15.9085 18.7424 16.2665 19.1004 16.2666 19.5421C16.2666 19.9839 15.9085 20.3418 15.4668 20.3419H8.5332C8.09141 20.3419 7.7334 19.9839 7.7334 19.5421C7.73347 19.1004 8.0915 18.7424 8.5332 18.7423H15.4668Z" fill="currentColor"/>
<path d="M15.4668 16.2189C15.9084 16.2189 16.2664 16.577 16.2666 17.0187C16.2666 17.4605 15.9085 17.8194 15.4668 17.8195H8.5332C8.09141 17.8194 7.7334 17.4605 7.7334 17.0187C7.7336 16.577 8.09158 16.2189 8.5332 16.2189H15.4668Z" fill="currentColor"/>
<path fill-rule="evenodd" clip-rule="evenodd" d="M18.7881 0.846797C19.2298 0.84691 19.5878 1.20497 19.5879 1.6466V6.27648H22.1338C23.1629 6.27673 24 7.11459 24 8.14367V16.1925C23.9998 17.2215 23.1627 18.0585 22.1338 18.0587H19.5879V22.3536C19.5877 22.7952 19.2296 23.1532 18.7881 23.1534H5.21191C4.77038 23.1532 4.41235 22.7951 4.41211 22.3536V18.0587H1.86621C0.837258 18.0585 0.000203218 17.2215 0 16.1925V8.14367C0 7.11454 0.837133 6.27673 1.86621 6.27648H4.41211V1.6466C4.41222 1.20493 4.77028 0.846911 5.21191 0.846797H18.7881ZM6.0127 15.0079V21.5529H17.9873C17.9873 21.3943 17.9873 15.206 17.9873 15.0079H6.0127ZM16.752 9.37414C16.3101 9.37414 15.9512 9.73308 15.9512 10.1749C15.9514 10.6166 16.3103 10.9747 16.752 10.9747H18.7881C19.2297 10.9746 19.5876 10.6165 19.5879 10.1749C19.5879 9.73315 19.2298 9.37425 18.7881 9.37414H16.752ZM6.01172 2.44641V6.27648H17.9883V2.44641H6.01172Z" fill="currentColor"/>
</svg>
