<svg width="24" height="24" viewBox="0 0 24 24" fill="none" xmlns="http://www.w3.org/2000/svg">
<path d="M12.0982 4.51222C13.3442 4.51222 14.3543 3.50213 14.3543 2.25611C14.3543 1.0101 13.3442 0 12.0982 0C10.8522 0 9.84209 1.0101 9.84209 2.25611C9.84209 3.50213 10.8522 4.51222 12.0982 4.51222Z" fill="currentColor"/>
<path d="M17.0272 4.95082H6.97318C6.60568 4.95082 6.30661 5.24989 6.30661 5.61739V12.6297C6.30661 12.9972 6.60568 13.2963 6.97318 13.2963H9.43104L9.43592 15.1213V22.7669C9.43592 23.4472 9.95718 23.9991 10.5069 23.9991C11.0579 23.9991 11.505 23.4472 11.505 22.7669V16.0061H12.7457V22.7673C12.7457 23.4485 13.1927 24 13.7428 24C14.293 24 14.7609 23.4485 14.7609 22.7673L14.772 15.0391V13.2963H17.0268C17.3939 13.2963 17.6934 12.9972 17.6934 12.6297V5.61739C17.6938 5.24989 17.3943 4.95082 17.0272 4.95082ZM12.2675 7.22693H14.3281C14.3983 7.22693 14.4605 7.25315 14.5027 7.30025C14.5445 7.34736 14.5627 7.41179 14.5543 7.48156L14.5085 7.86106L12.5261 8.05658C12.4524 8.06414 12.3622 8.06814 12.2671 8.0708L12.2675 7.22693ZM12.2684 9.3875C12.3782 9.38439 12.4839 9.37994 12.5719 9.37061L14.3516 9.18664L14.2739 9.83543L12.5395 10.0216C12.4621 10.0301 12.367 10.0345 12.2688 10.0372L12.2684 9.3875ZM12.5372 9.03911C12.4604 9.04666 12.3662 9.0511 12.2684 9.05421V8.40409C12.3737 8.40098 12.4764 8.39653 12.5603 8.38809L14.469 8.19923L14.3916 8.84713L12.5372 9.03911ZM11.9356 11.8511H10.4673C10.3069 11.8511 10.1549 11.716 10.1358 11.5565L10.0865 11.1441L11.7542 11.3348C11.8085 11.341 11.8716 11.3445 11.9356 11.3481V11.8511ZM11.9356 11.0144C11.8853 11.0108 11.8338 11.0077 11.7925 11.0033L10.0461 10.8037L9.97051 10.1723L11.656 10.3531C11.7374 10.3616 11.8342 10.3665 11.9356 10.3696V11.0144ZM11.9356 10.0367C11.8467 10.0336 11.7618 10.0292 11.6916 10.0216L9.93007 9.83232L9.85231 9.18442L11.6534 9.37061C11.7351 9.3795 11.8333 9.38394 11.9356 9.38705V10.0367ZM11.9356 9.05377C11.8453 9.05066 11.7591 9.04622 11.6876 9.03911L9.81187 8.84491L9.73455 8.19923L11.6436 8.38809C11.7276 8.39698 11.8302 8.40098 11.9356 8.40409V9.05377ZM11.9356 8.07036C11.8409 8.06769 11.7507 8.06325 11.6765 8.05614L9.69455 7.86061L9.64967 7.48156C9.64123 7.41135 9.65989 7.34691 9.70166 7.29981C9.74388 7.25226 9.80565 7.22648 9.87586 7.22648H11.9356V8.07036ZM11.9356 6.89365H9.87586C9.70877 6.89365 9.55813 6.95941 9.45237 7.07895C9.3466 7.19849 9.29861 7.35536 9.31861 7.52155L9.8052 11.5956C9.84431 11.9258 10.1354 12.184 10.4673 12.184H11.9356V12.8514H8.39919C8.32853 12.8012 8.27965 12.7226 8.27965 12.6292V6.74433C8.27965 6.59102 8.40408 6.4666 8.55739 6.4666H11.9356V6.89365ZM11.9356 6.13287H8.55739C8.22055 6.13287 7.94637 6.40705 7.94637 6.74389V12.6297C7.94637 12.7088 7.96236 12.7834 7.98947 12.8519H6.97407C6.85186 12.8519 6.75188 12.7519 6.75188 12.6297V5.61739C6.75188 5.49519 6.85186 5.3952 6.97407 5.3952H11.9356V6.13287ZM12.2675 10.3705C12.3786 10.3674 12.4857 10.3625 12.5741 10.3531L14.2325 10.1754L14.1543 10.83L12.6355 11.0037C12.535 11.0153 12.4026 11.021 12.2671 11.0228L12.2675 10.3705ZM12.2679 11.3552C12.4155 11.3539 12.5595 11.3472 12.675 11.3348L14.1148 11.1703L14.0686 11.557C14.0495 11.716 13.897 11.8511 13.7371 11.8511H12.2684L12.2679 11.3552ZM15.7883 12.8519H12.2688V12.1844H13.7375C14.0695 12.1844 14.3601 11.9262 14.3996 11.5969L14.8862 7.52111C14.9062 7.35535 14.8587 7.19805 14.7525 7.07895C14.6467 6.95941 14.4961 6.89365 14.329 6.89365H12.2688V6.4666H15.6301C15.7839 6.4666 15.9079 6.59102 15.9079 6.74433V12.6297C15.9079 12.723 15.859 12.8017 15.7883 12.8519ZM17.2512 12.6297C17.2508 12.7519 17.1503 12.8519 17.0286 12.8519H16.1985C16.226 12.7834 16.242 12.7088 16.242 12.6297V6.74433C16.242 6.4075 15.9678 6.13331 15.631 6.13331H12.2702V5.39565H17.0295C17.1517 5.39565 17.2517 5.49563 17.2517 5.61783L17.2512 12.6297Z" fill="currentColor"/>
</svg>
