<svg width="24" height="24" viewBox="0 0 24 24" fill="none" xmlns="http://www.w3.org/2000/svg">
<path d="M22.7373 23.8117C22.4778 23.9261 22.1919 23.9923 21.8906 23.9924H2.10938C1.80786 23.9923 1.52142 23.9262 1.26172 23.8117L8.71875 17.1818L10.6104 18.8674C11.4026 19.5593 12.5969 19.5598 13.3887 18.8674L15.2812 17.1818L22.7373 23.8117Z" fill="currentColor"/>
<path d="M7.66113 16.2404L0.239258 22.8391C0.0911243 22.5508 5.27876e-05 22.2288 0 21.883V10.633C0 10.286 0.0921167 9.96301 0.241211 9.67402L7.66113 16.2404Z" fill="currentColor"/>
<path d="M23.7578 9.67402C23.907 9.96307 24 10.2859 24 10.633V21.883C23.9999 22.2288 23.9079 22.5508 23.7598 22.8391L16.3379 16.2404L23.7578 9.67402Z" fill="currentColor"/>
<path d="M8.48438 12.0393C8.48456 13.2021 9.43088 14.1484 10.5938 14.1486H13.4062C14.5691 14.1484 15.5154 13.2021 15.5156 12.0393V8.52363H21.8906C22.1908 8.52369 22.4756 8.58877 22.7344 8.70234L12.4629 17.8078C12.1979 18.0383 11.8011 18.0385 11.5361 17.8078L1.26465 8.70234C1.52348 8.58867 1.809 8.52368 2.10938 8.52363H8.48438V12.0393Z" fill="currentColor"/>
<path d="M11.4375 0.27363C11.7025 -0.0804542 12.2964 -0.0802706 12.5615 0.27363L16.7803 5.99238C17.1267 6.4532 16.7975 7.11709 16.2188 7.11738H14.1094V12.0393C14.1092 12.4276 13.7946 12.7422 13.4062 12.7424H10.5938C10.2054 12.7422 9.89079 12.4276 9.89062 12.0393V7.11738H7.78125C7.20257 7.11709 6.87256 6.45319 7.21875 5.99238L11.4375 0.27363Z" fill="currentColor"/>
</svg>
