<svg width="24" height="24" viewBox="0 0 24 24" fill="none" xmlns="http://www.w3.org/2000/svg">
<path d="M20.8338 3.93964L14.0354 20.2811C13.982 20.4136 13.8483 20.5007 13.6997 20.5007H12.0518C11.9331 20.5007 11.8219 20.4453 11.7547 20.3525C11.6876 20.2594 11.6731 20.1419 11.7156 20.0358L18.464 3.69441C18.5176 3.56155 18.6508 3.47448 18.7999 3.47448H20.4979C20.6169 3.47448 20.7277 3.52992 20.7949 3.62331C20.8618 3.7161 20.8766 3.8345 20.8338 3.93964ZM22.1886 16.6219C21.1411 16.6219 20.3521 17.4016 20.3521 18.4364C20.3521 19.4704 21.1203 20.25 22.1392 20.25H22.1639C23.228 20.25 24.0001 19.4869 24.0001 18.4364C24.0001 17.385 23.2382 16.6219 22.1886 16.6219ZM6.62835 10.4121C4.12571 9.49143 3.68526 8.86328 3.68526 7.88326C3.68526 6.98246 4.4785 6.07323 6.25056 6.07323C7.83524 6.07323 8.82912 6.5872 9.09695 6.74506C9.24156 6.82972 9.4166 6.85141 9.58862 6.79356C9.75673 6.73542 9.88598 6.60798 9.94322 6.4453L10.5376 4.77597C10.6298 4.51898 10.5204 4.23428 10.2776 4.09871C9.81819 3.84294 8.51339 3.24823 6.32528 3.24823C2.80555 3.24823 0.347496 5.25077 0.347496 8.11855C0.347496 10.4022 1.9147 12.0537 5.13647 13.1663C7.44781 13.9867 7.90001 14.7398 7.90001 15.7632C7.90001 17.1024 6.81122 17.9023 4.98764 17.9023C3.73406 17.9023 2.44674 17.557 1.45586 16.9539C1.30734 16.8638 1.12055 16.8439 0.955758 16.8996C0.786144 16.9584 0.65238 17.0937 0.597851 17.2591L0.0281507 18.976C-0.0525894 19.2191 0.0447205 19.4854 0.264044 19.6243C1.29378 20.2769 3.21799 20.7502 4.83912 20.7502C9.56241 20.7502 11.2381 17.9746 11.2381 15.5976C11.2387 13.1425 9.90345 11.6401 6.62835 10.4121Z" fill="currentColor"/>
</svg>
