<svg width="24" height="24" viewBox="0 0 24 24" fill="none" xmlns="http://www.w3.org/2000/svg">
<path d="M6.67055 19.375H9.58509V16.2262C13.3757 15.5245 16.2556 12.1939 16.2556 8.20327V6.94641H15.5014V2.44097C15.5014 1.52423 14.7066 0.778453 13.7296 0.778453H12.8232C12.54 0.311813 12.0271 0 11.4414 0C10.5494 0 9.82622 0.723141 9.82622 1.61517C9.82622 2.5072 10.5494 3.23034 11.4414 3.23034C12.1329 3.23034 12.7226 2.79567 12.9529 2.18475H13.7296C13.9388 2.18475 14.0952 2.32003 14.0952 2.44102V6.94645H13.341V8.20336C13.341 11.0848 11.0053 13.4309 8.12775 13.4477C5.25023 13.4309 2.9145 11.0848 2.9145 8.20336V6.94641H2.16042V2.44097C2.16042 2.31998 2.31675 2.1847 2.52595 2.1847H3.30267C3.53302 2.79562 4.1227 3.2303 4.8142 3.2303C5.70623 3.2303 6.42938 2.50716 6.42938 1.61513C6.42938 0.723094 5.70628 0 4.81425 0C4.2285 0 3.71564 0.311813 3.43247 0.778453H2.52595C1.54898 0.778453 0.754172 1.52423 0.754172 2.44097V6.94641H0V8.20331C0 12.194 2.87991 15.5246 6.67055 16.2262V19.375Z" fill="currentColor"/>
<path d="M20.9494 0C19.2673 0 17.8988 1.36852 17.8988 3.05063C17.8988 4.49072 18.9021 5.70009 20.2463 6.01852V16.3195C20.2463 16.8365 19.8257 17.257 19.3088 17.257H16.3328C15.0405 17.257 13.989 18.3084 13.989 19.6008V21.6562C13.989 22.1732 13.5685 22.5938 13.0515 22.5938H9.76842C9.25148 22.5938 8.83092 22.1732 8.83092 21.6562V20.7812H7.42467V21.6562C7.42467 22.9486 8.47608 24 9.76842 24H13.0515C14.3439 24 15.3953 22.9486 15.3953 21.6562V19.6008C15.3953 19.0838 15.8159 18.6633 16.3328 18.6633H19.3088C20.6011 18.6633 21.6525 17.6119 21.6525 16.3195V6.01852C22.9966 5.70009 24 4.49072 24 3.05063C24 1.36852 22.6315 0 20.9494 0Z" fill="currentColor"/>
</svg>
