<svg width="24" height="24" viewBox="0 0 24 24" fill="none" xmlns="http://www.w3.org/2000/svg">
<path fill-rule="evenodd" clip-rule="evenodd" d="M21.084 7.03125L19.8389 22.0654C19.7496 23.1496 18.8256 24 17.7373 24H6.2627C5.17435 24 4.25038 23.1496 4.16113 22.0654L2.91602 7.03125H21.084ZM7.7373 8.43848C7.35002 8.46252 7.05506 8.79663 7.0791 9.18457L7.78223 20.5283C7.80556 20.9011 8.11548 21.1873 8.4834 21.1875C8.89284 21.1875 9.21139 20.8421 9.18652 20.4404L8.4834 9.09668C8.4587 8.70874 8.13897 8.41031 7.7373 8.43848ZM12 8.4375C11.6114 8.4375 11.2969 8.75198 11.2969 9.14062V20.4844C11.2969 20.873 11.6114 21.1875 12 21.1875C12.3886 21.1875 12.7031 20.873 12.7031 20.4844V9.14062C12.7031 8.75198 12.3886 8.4375 12 8.4375ZM16.2627 8.43848C15.8809 8.4261 15.5406 8.70874 15.5166 9.09668L14.8135 20.4404C14.7894 20.8284 15.0844 21.1625 15.4717 21.1865C15.8866 21.2054 16.1947 20.8974 16.2178 20.5283L16.9209 9.18457C16.9449 8.79665 16.65 8.46252 16.2627 8.43848Z" fill="currentColor"/>
<path fill-rule="evenodd" clip-rule="evenodd" d="M14.8125 0C15.9757 0 16.9219 0.946219 16.9219 2.10938V2.8125H21.1406C21.9173 2.8125 22.5469 3.44208 22.5469 4.21875C22.5469 4.99533 21.9173 5.625 21.1406 5.625H2.85938C2.0827 5.625 1.45312 4.99533 1.45312 4.21875C1.45312 3.44208 2.0827 2.8125 2.85938 2.8125H7.07812V2.10938C7.07812 0.946219 8.02434 0 9.1875 0H14.8125ZM9.1875 1.40625C8.79956 1.40625 8.48438 1.72144 8.48438 2.10938V2.8125H15.5156V2.10938C15.5156 1.72144 15.2004 1.40625 14.8125 1.40625H9.1875Z" fill="currentColor"/>
</svg>
