<svg width="24" height="24" viewBox="0 0 24 24" fill="none" xmlns="http://www.w3.org/2000/svg">
<path d="M20.4853 3.51471C18.2188 1.24823 15.2053 0 12 0C8.79474 0 5.78119 1.24823 3.51471 3.51471C1.24823 5.78119 0 8.79474 0 12C0 15.2053 1.24823 18.2188 3.51471 20.4853C5.78119 22.7518 8.79474 24 12 24C15.2053 24 18.2188 22.7518 20.4853 20.4853C22.7518 18.2188 24 15.2053 24 12C24 8.79474 22.7518 5.78119 20.4853 3.51471ZM13.3096 16.7476H10.8505C10.4621 16.7476 10.1473 16.4328 10.1473 16.0444C10.1473 15.6561 10.4621 15.3413 10.8505 15.3413H13.3096C14.6309 15.3413 15.7057 14.2665 15.7057 12.9454C15.7057 11.6243 14.6307 10.5494 13.3096 10.5494H9.28876L9.97906 11.2397C10.2535 11.5142 10.2535 11.9595 9.97906 12.234C9.84174 12.3713 9.66174 12.44 9.48193 12.44C9.30194 12.44 9.12195 12.3713 8.9848 12.234L7.09406 10.3434C6.81958 10.0688 6.81958 9.62366 7.09406 9.349L8.9848 7.45844C9.25928 7.18396 9.70441 7.18396 9.97906 7.45844C10.2537 7.73309 10.2537 8.17822 9.97906 8.45288L9.28876 9.14319H13.3098C15.4063 9.14319 17.1119 10.8488 17.1119 12.9454C17.1119 15.0419 15.4061 16.7476 13.3096 16.7476Z" fill="currentColor"/>
</svg>
