<svg width="24" height="24" viewBox="0 0 24 24" fill="none" xmlns="http://www.w3.org/2000/svg">
<path fill-rule="evenodd" clip-rule="evenodd" d="M18.7656 0C19.9927 0 20.9754 0.994429 20.9756 2.20898V21.791C20.9754 23.018 19.9802 24 18.7656 24H5.20898C3.99107 23.9998 3.0002 23.0089 3 21.791V6.67773H7.46875C8.68693 6.67773 9.67868 5.68692 9.67871 4.46875V0H18.7656ZM12.4844 11.5029C12.2099 11.2284 11.7647 11.2283 11.4902 11.5029L8.47754 14.5156C8.20335 14.7903 8.20319 15.2354 8.47754 15.5098C8.7522 15.7844 9.19818 15.7844 9.47266 15.5098L11.2842 13.6973V18.7783C11.2842 19.1664 11.5991 19.4813 11.9873 19.4814C12.3756 19.4814 12.6904 19.1664 12.6904 18.7783V13.6973L14.5029 15.5098C14.7776 15.7844 15.2226 15.7843 15.4971 15.5098C15.7717 15.2353 15.7715 14.7903 15.4971 14.5156L12.4844 11.5029ZM8.97559 8.28418C8.5873 8.28418 8.27259 8.59905 8.27246 8.9873C8.27246 9.37549 8.58722 9.69043 8.97559 9.69043H15C15.3884 9.69043 15.7031 9.37549 15.7031 8.9873C15.703 8.59905 15.3883 8.28418 15 8.28418H8.97559Z" fill="currentColor"/>
<path d="M8.27246 0V4.46875C8.27243 4.91165 7.91148 5.27148 7.46875 5.27148H3V5.22168C3.00003 5.03532 3.07425 4.85642 3.20605 4.72461L7.72461 0.206055C7.85642 0.0742475 8.03532 3.23687e-05 8.22168 0H8.27246Z" fill="currentColor"/>
</svg>
