<svg width="24" height="24" viewBox="0 0 24 24" fill="none" xmlns="http://www.w3.org/2000/svg">
<path d="M23.3543 6.14461H0.645703C0.289078 6.14461 0 6.43373 0 6.79031V19.8049C0 20.1615 0.289078 20.4506 0.645703 20.4506H23.3543C23.7109 20.4506 24 20.1615 24 19.8049V6.79031C24 6.43373 23.7109 6.14461 23.3543 6.14461ZM20.7187 16.6054C20.7187 17.8072 19.7384 18.7849 18.5335 18.7849C17.3286 18.7849 16.3484 17.8072 16.3484 16.6054V16.377C16.3484 15.9824 16.0983 15.6246 15.7261 15.4866C14.8057 15.1454 14.1872 14.2582 14.1872 13.2787V12.0711L11.9524 11.2376L9.81286 12.0652V13.2787C9.81286 14.2581 9.19439 15.1454 8.27391 15.4866C7.90172 15.6245 7.65169 15.9824 7.65169 16.377V16.6053C7.65169 17.8071 6.67144 18.7849 5.46652 18.7849C4.26164 18.7849 3.28139 17.8072 3.28139 16.6053V13.526C3.28139 11.9812 3.89606 10.5702 5.0122 9.55308C6.08888 8.57184 7.5443 8.03147 9.11034 8.03147C9.49833 8.03147 9.81281 8.346 9.81281 8.73398V10.5587L11.2444 10.0049V8.19769C11.2444 7.8097 11.559 7.49517 11.9469 7.49517C12.3348 7.49517 12.6494 7.8097 12.6494 8.19769V9.99792L14.1871 10.5715V8.73394C14.1871 8.34595 14.5017 8.03142 14.8896 8.03142C16.4557 8.03142 17.9111 8.5718 18.9877 9.55303C20.1039 10.5702 20.7186 11.9812 20.7186 13.526L20.7187 16.6054Z" fill="currentColor"/>
<path d="M22.4948 23.4832V21.8557H19.6461V23.999L21.9778 24C22.2633 24.0001 22.4948 23.7687 22.4948 23.4832Z" fill="currentColor"/>
<path d="M18.0415 10.5916C17.3845 9.99286 16.5323 9.61031 15.5922 9.48333V11.5477C15.5935 11.5729 15.5936 11.5983 15.5922 11.6237V13.2787C15.5922 13.6734 15.8422 14.0312 16.2144 14.1692C17.1349 14.5104 17.7534 15.3976 17.7534 16.3771V16.6054C17.7534 17.0325 18.1034 17.3799 18.5336 17.3799C18.9637 17.3799 19.3138 17.0325 19.3138 16.6054V13.5261C19.3137 12.3814 18.8619 11.3392 18.0415 10.5916Z" fill="currentColor"/>
<path d="M4.68633 13.5261V16.6054C4.68633 17.0325 5.0363 17.3799 5.46652 17.3799C5.89673 17.3799 6.2467 17.0325 6.2467 16.6054V16.377C6.2467 15.3976 6.86517 14.5103 7.78566 14.1691C8.15784 14.0312 8.40792 13.6733 8.40792 13.2787V9.48333C7.46775 9.61036 6.61556 9.99286 5.95861 10.5916C5.13811 11.3392 4.68633 12.3814 4.68633 13.5261Z" fill="currentColor"/>
<path d="M4.35389 21.8557H1.296V23.4742C1.296 23.7596 1.52723 23.9909 1.81256 23.991L4.35389 23.9922V21.8557Z" fill="currentColor"/>
<path d="M18.2411 23.9984V21.8557H5.75887V23.9928L18.2411 23.9984Z" fill="currentColor"/>
<path d="M19.7175 2.30995L16.3606 2.04145C15.6674 1.986 15.0256 1.67494 14.5537 1.16545C14.3547 0.950625 14.1933 0.708656 14.0732 0.448594C13.9482 0.178078 13.6831 0 13.3851 0H10.3696C10.0653 0 9.78942 0.182719 9.67505 0.464672C9.552 0.768047 9.3743 1.04963 9.14742 1.29572C8.67825 1.8045 8.03948 2.11688 7.34883 2.17533L4.44005 2.42142C3.68381 2.48541 2.98472 2.82712 2.47153 3.38372C2.115 3.77034 1.87022 4.23731 1.75402 4.73967H22.441C22.3362 4.19311 22.0804 3.68409 21.6952 3.26831C21.179 2.71102 20.4766 2.37066 19.7175 2.30995Z" fill="currentColor"/>
</svg>
