<svg width="24" height="24" viewBox="0 0 24 24" fill="none" xmlns="http://www.w3.org/2000/svg">
<path d="M18.7397 3.12927L21.267 3.13367L18.7397 0.606445V3.12927Z" fill="currentColor"/>
<path d="M18.0271 4.55072C17.6347 4.54999 17.317 4.23175 17.317 3.83936V0H5.25073C4.85797 0 4.53937 0.31842 4.53937 0.711365V13.3894C5.28003 13.0801 6.0921 12.9089 6.94354 12.9089C7.36395 12.9089 7.77484 12.9509 8.17236 13.0303C8.12494 12.9351 8.09747 12.8278 8.09747 12.7139C8.09747 12.3212 8.41589 12.0027 8.80884 12.0027H17.3762C17.7691 12.0027 18.0875 12.3212 18.0875 12.7139C18.0875 13.1069 17.7691 13.4253 17.3762 13.4253H9.4314C11.647 14.3893 13.2004 16.5994 13.2004 19.1658C13.2004 20.1621 12.9659 21.1044 12.5499 21.9413H21.2142C21.607 21.9413 21.9256 21.6229 21.9256 21.23V4.55768L18.0271 4.55072ZM14.8154 7.11804C14.8154 7.51099 14.4968 7.82941 14.1041 7.82941H8.80884C8.41589 7.82941 8.09747 7.51099 8.09747 7.11804C8.09747 6.72528 8.41589 6.40668 8.80884 6.40668H14.1041C14.4968 6.40668 14.8154 6.7251 14.8154 7.11804ZM17.3762 10.6274H8.80884C8.41589 10.6274 8.09747 10.3088 8.09747 9.91608C8.09747 9.52313 8.41589 9.20471 8.80884 9.20471H17.3762C17.7691 9.20471 18.0875 9.52313 18.0875 9.91608C18.0875 10.3088 17.7691 10.6274 17.3762 10.6274Z" fill="currentColor"/>
<path d="M11.7777 19.1658C11.7777 16.5002 9.60919 14.3317 6.94354 14.3317C4.27789 14.3317 2.10938 16.5002 2.10938 19.1658C2.10938 21.8315 4.27789 24 6.94354 24C9.60919 24 11.7777 21.8313 11.7777 19.1658ZM8.33459 19.8772H7.65491V20.5569C7.65491 20.9496 7.3363 21.2682 6.94354 21.2682C6.5506 21.2682 6.23218 20.9496 6.23218 20.5569V19.8772H5.55249C5.15955 19.8772 4.84113 19.5586 4.84113 19.1658C4.84113 18.7729 5.15955 18.4545 5.55249 18.4545H6.23218V17.7748C6.23218 17.3818 6.5506 17.0634 6.94354 17.0634C7.3363 17.0634 7.65491 17.3818 7.65491 17.7748V18.4545H8.33459C8.72736 18.4545 9.04596 18.7729 9.04596 19.1658C9.04596 19.5586 8.72736 19.8772 8.33459 19.8772Z" fill="currentColor"/>
</svg>
