<svg width="24" height="24" viewBox="0 0 24 24" fill="none" xmlns="http://www.w3.org/2000/svg">
<g clip-path="url(#clip0_13_6840)">
<path d="M10.5938 10.875C7.59548 10.875 5.15625 8.43577 5.15625 5.4375C5.15625 2.43923 7.59548 0 10.5938 0C13.592 0 16.0312 2.43923 16.0312 5.4375C16.0312 8.43577 13.592 10.875 10.5938 10.875Z" fill="currentColor"/>
<path d="M12.7031 14.8594C12.7031 13.6556 13.0411 12.5294 13.6269 11.5703C12.7122 12.0247 11.6826 12.2812 10.5938 12.2812C9.1815 12.2812 7.86788 11.8512 6.77677 11.1153C5.42761 11.6383 4.18992 12.4414 3.13603 13.4953C1.14394 15.4874 0.046875 18.1359 0.046875 20.9531V23.2969C0.046875 23.6852 0.361687 24 0.75 24H20.4375C20.8258 24 21.1406 23.6852 21.1406 23.2969V20.9531C21.1406 20.9108 21.1395 20.8685 21.1389 20.8261C20.4793 21.0599 19.77 21.1875 19.0312 21.1875C15.5419 21.1875 12.7031 18.3487 12.7031 14.8594Z" fill="currentColor"/>
<path d="M19.0312 9.9375C16.3173 9.9375 14.1094 12.1455 14.1094 14.8594C14.1094 17.5733 16.3173 19.7812 19.0312 19.7812C21.7452 19.7812 23.9531 17.5733 23.9531 14.8594C23.9531 12.1455 21.7452 9.9375 19.0312 9.9375ZM20.4375 15.5625H19.7344V16.2656C19.7344 16.6539 19.4196 16.9688 19.0312 16.9688C18.6429 16.9688 18.3281 16.6539 18.3281 16.2656V15.5625H17.625C17.2367 15.5625 16.9219 15.2477 16.9219 14.8594C16.9219 14.4711 17.2367 14.1562 17.625 14.1562H18.3281V13.4531C18.3281 13.0648 18.6429 12.75 19.0312 12.75C19.4196 12.75 19.7344 13.0648 19.7344 13.4531V14.1562H20.4375C20.8258 14.1562 21.1406 14.4711 21.1406 14.8594C21.1406 15.2477 20.8258 15.5625 20.4375 15.5625Z" fill="currentColor"/>
</g>
<defs>
<clipPath id="clip0_13_6840">
<rect width="24" height="24" fill="currentColor"/>
</clipPath>
</defs>
</svg>
