<svg width="24" height="24" viewBox="0 0 24 24" fill="none" xmlns="http://www.w3.org/2000/svg">
<g clip-path="url(#clip0_13_6434)">
<path d="M17.8234 6.70838H22.3256L17.2188 1.67442V6.10336C17.2188 6.43697 17.49 6.70838 17.8234 6.70838Z" fill="currentColor"/>
<path d="M16.0087 6.10336V1.67442H4.69268C4.35855 1.67442 4.08766 1.9453 4.08766 2.27943V6.80458C4.50589 6.67692 4.98893 6.71576 5.37779 6.90957C5.61766 6.21307 6.27955 5.71131 7.05643 5.71131H8.89587C9.67275 5.71131 10.3346 6.21307 10.5745 6.90957C11.2345 6.57798 12.0923 6.71721 12.6094 7.25047L13.9101 8.5521C14.4593 9.10174 14.5721 9.92536 14.2485 10.5875C14.9455 10.8271 15.4476 11.4892 15.4476 12.2664V14.1072C15.4476 14.8844 14.9454 15.5466 14.2484 15.7861C14.5721 16.4483 14.4593 17.2719 13.9101 17.8215L12.6093 19.1231C12.0944 19.654 11.2418 19.7946 10.5829 19.4681C10.3419 20.1625 9.68114 20.6623 8.90572 20.6623H7.05643C6.27955 20.6623 5.61766 20.1605 5.37779 19.464C4.98893 19.6578 4.50589 19.6967 4.08766 19.569V21.7206C4.08766 22.0547 4.35855 22.3256 4.69268 22.3256H21.7206C22.0547 22.3256 22.3256 22.0547 22.3256 21.7206V7.91841H17.8234C16.8228 7.91841 16.0087 7.10418 16.0087 6.10336Z" fill="currentColor"/>
<path d="M7.90325 14.7224C8.75002 14.7224 9.43893 14.0328 9.43893 13.1852C9.35455 11.1459 6.45161 11.1465 6.36756 13.1852C6.36756 14.0328 7.05647 14.7224 7.90325 14.7224Z" fill="currentColor"/>
<path d="M5.02628 18.2963L5.40478 17.9176C5.7379 18.0994 6.08768 18.2445 6.45145 18.3515V18.8876C6.45145 19.2217 6.72234 19.4926 7.05647 19.4926H8.90576C9.23989 19.4926 9.51077 19.2217 9.51077 18.8876V18.3509C9.86954 18.2444 10.2162 18.0996 10.5478 17.9179L10.926 18.2963C11.1514 18.5309 11.5566 18.5309 11.782 18.2963L13.0826 16.9948C13.3187 16.7585 13.3187 16.3757 13.0826 16.1394L12.7037 15.7602C12.8856 15.4267 13.0306 15.0764 13.1376 14.7122H13.6728C14.007 14.7122 14.2778 14.4413 14.2778 14.1072V12.2664C14.2778 11.9323 14.007 11.6614 13.6728 11.6614H13.1376C13.0306 11.2972 12.8856 10.9469 12.7037 10.6134L13.0826 10.2342C13.3187 9.998 13.3187 9.61515 13.0826 9.37891L11.782 8.07733C11.5566 7.84278 11.1514 7.84278 10.926 8.07733L10.5475 8.4561C10.2144 8.2742 9.86466 8.1292 9.50089 8.02215V7.48606C9.50089 7.15194 9.23 6.88105 8.89587 6.88105H7.05643C6.7223 6.88105 6.45141 7.15194 6.45141 7.48606V8.02215C6.08764 8.1292 5.73786 8.27424 5.40474 8.4561L5.02624 8.07733C4.80093 7.84278 4.39561 7.84278 4.17031 8.07733L2.86961 9.37891C2.63353 9.61515 2.63353 9.998 2.86961 10.2342L3.24855 10.6134C3.06664 10.9469 2.9216 11.2972 2.81455 11.6614H2.27943C1.9453 11.6614 1.67442 11.9323 1.67442 12.2664V14.1072C1.67442 14.4413 1.9453 14.7122 2.27943 14.7122H2.81463C2.92164 15.0764 3.06672 15.4267 3.24859 15.7602L2.86965 16.1394C2.63357 16.3757 2.63357 16.7585 2.86965 16.9948L4.17035 18.2963C4.39565 18.5309 4.80097 18.5309 5.02628 18.2963ZM7.90325 10.438C9.41723 10.438 10.649 11.6704 10.649 13.1852C10.4981 16.8298 5.30781 16.8287 5.15753 13.1852C5.15753 11.6703 6.38926 10.438 7.90325 10.438Z" fill="currentColor"/>
</g>
<defs>
<clipPath id="clip0_13_6434">
<rect width="20.6512" height="20.6512" fill="currentColor" transform="translate(1.67442 1.67442)"/>
</clipPath>
</defs>
</svg>
