<svg width="24" height="24" viewBox="0 0 24 24" fill="none" xmlns="http://www.w3.org/2000/svg">
<g clip-path="url(#clip0_13_6833)">
<path d="M18.375 12.75H5.625V14.1562H18.375V12.75Z" fill="currentColor"/>
<path d="M11.3438 0H7.03125V7.125H11.3438V0Z" fill="currentColor"/>
<path d="M16.9688 0H15.5625V7.125H16.9688V0Z" fill="currentColor"/>
<path d="M5.625 15.5625V24H18.375V15.5625H5.625ZM16.2656 21.1875H7.73438C7.34573 21.1875 7.03125 20.873 7.03125 20.4844C7.03125 20.0957 7.34573 19.7812 7.73438 19.7812H16.2656C16.6543 19.7812 16.9688 20.0957 16.9688 20.4844C16.9688 20.873 16.6543 21.1875 16.2656 21.1875ZM16.2656 18.375H7.73438C7.34573 18.375 7.03125 18.0605 7.03125 17.6719C7.03125 17.2832 7.34573 16.9688 7.73438 16.9688H16.2656C16.6543 16.9688 16.9688 17.2832 16.9688 17.6719C16.9688 18.0605 16.6543 18.375 16.2656 18.375Z" fill="currentColor"/>
<path d="M14.1562 0H12.75V7.125H14.1562V0Z" fill="currentColor"/>
<path d="M22.97 3.64762L20.3993 1.02998C19.8462 0.476953 19.1379 0.1455 18.375 0.0451406V7.82812C18.375 8.21677 18.0605 8.53125 17.6719 8.53125C6.76167 8.53125 16.7466 8.53125 6.32812 8.53125C5.93948 8.53125 5.625 8.21677 5.625 7.82812V0H2.10938C0.946219 0 0 0.946219 0 2.10938V21.8906C0 23.0538 0.946219 24 2.10938 24H4.21875V12.0469C4.21875 11.6582 4.53323 11.3438 4.92188 11.3438H19.0781C19.4668 11.3438 19.7812 11.6582 19.7812 12.0469V24H21.8906C23.0538 24 24 23.0538 24 21.8906V6.18084C24 5.24152 23.634 4.31161 22.97 3.64762Z" fill="currentColor"/>
</g>
<defs>
<clipPath id="clip0_13_6833">
<rect width="24" height="24" fill="currentColor"/>
</clipPath>
</defs>
</svg>
