<svg width="24" height="24" viewBox="0 0 24 24" fill="none" xmlns="http://www.w3.org/2000/svg">
<g clip-path="url(#clip0_1075_25240)">
<path d="M23.79 22.7748C23.79 19.6287 22.5648 16.6712 20.3403 14.4467C19.7397 13.8461 19.0854 13.3191 18.3887 12.8687V17.1026C19.1444 17.3956 19.682 18.1298 19.682 18.9877C19.682 20.1022 18.7753 21.009 17.6607 21.009C16.5461 21.009 15.6396 20.1022 15.6396 18.9877C15.6396 18.1086 16.2039 17.3591 16.9891 17.0817V12.0941C16.8153 12.013 16.6395 11.9361 16.4619 11.8638C16.3244 11.9689 16.183 12.0692 16.038 12.1646L12.7119 16.8406V24H23.79V22.7748ZM14.3679 21.7635C13.9757 21.7635 13.6851 21.4429 13.6683 21.0637C13.6512 20.6858 14.0021 20.3639 14.3679 20.3639C14.7603 20.3639 15.0507 20.6845 15.0677 21.0637C15.0848 21.4417 14.7339 21.7635 14.3679 21.7635Z" fill="currentColor"/>
<path d="M7.9931 12.1692C7.8457 12.0725 7.70215 11.9705 7.56226 11.8638C7.45935 11.9057 7.35681 11.9489 7.255 11.9938V16.9138C8.78998 17.2641 9.93896 18.6394 9.93896 20.2787V21.5101H8.53949V20.2787C8.53949 19.147 7.61865 18.2261 6.48688 18.2261C5.35492 18.2261 4.43408 19.147 4.43408 20.2787V21.5845H3.03442V20.2787C3.03442 18.5909 4.25244 17.183 5.85553 16.8854V12.73C5.07623 13.2098 4.34729 13.7834 3.68408 14.4467C1.45953 16.6712 0.234375 19.6289 0.234375 22.7748V24H11.3123V16.8397L7.9931 12.1692Z" fill="currentColor"/>
<path d="M13.5848 13.1995C13.0779 13.3105 12.5519 13.3696 12.0121 13.3696C11.4732 13.3696 10.9481 13.3107 10.442 13.2001L12.0123 15.4107L13.5848 13.1995Z" fill="currentColor"/>
<path d="M17.6607 18.366C17.3179 18.366 17.0391 18.6451 17.0391 18.9877C17.0391 19.3306 17.3179 19.6095 17.6607 19.6095C18.0035 19.6095 18.2823 19.3304 18.2823 18.9877C18.2823 18.6449 18.0035 18.366 17.6607 18.366Z" fill="currentColor"/>
<path d="M12.0121 11.9233C15.2994 11.9233 17.9738 9.24902 17.9738 5.96173C17.9738 2.67444 15.2994 0 12.0121 0C8.72498 0 6.05035 2.67444 6.05035 5.96173C6.05035 9.24902 8.72479 11.9233 12.0121 11.9233Z" fill="currentColor"/>
</g>
<defs>
<clipPath id="clip0_1075_25240">
<rect width="24" height="24" fill="currentColor"/>
</clipPath>
</defs>
</svg>
