<svg width="24" height="24" viewBox="0 0 24 24" fill="none" xmlns="http://www.w3.org/2000/svg">
<path d="M20.6662 20.8011H3.34049C2.81135 20.8011 2.38115 21.2347 2.38115 21.7605V23.0407C2.38115 23.5698 2.81474 24 3.34049 24H20.6594C21.1886 24 21.6187 23.5664 21.6187 23.0407V21.7605C21.629 21.2279 21.1954 20.8011 20.6662 20.8011Z" fill="currentColor"/>
<path d="M11.3325 19.0839C11.5203 19.2717 11.7661 19.3673 12.0085 19.3673C12.2543 19.3673 12.5001 19.2717 12.6844 19.0839L19.246 12.5223C19.6182 12.1502 19.6182 11.5426 19.246 11.1636L18.3379 10.2555C17.9658 9.88334 17.3581 9.88334 16.9792 10.2555L13.6062 13.6319V0.95934C13.6062 0.430156 13.1726 0 12.6469 0H11.3667C10.8375 0 10.4073 0.42672 10.4073 0.95934V13.6353L7.03095 10.2589C6.6588 9.88677 6.04773 9.88677 5.6722 10.2589L4.76409 11.167C4.39199 11.5391 4.39199 12.1502 4.76409 12.5257L11.3325 19.0839Z" fill="currentColor"/>
</svg>
