<svg width="24" height="24" viewBox="0 0 24 24" fill="none" xmlns="http://www.w3.org/2000/svg">
<g clip-path="url(#clip0_970_22118)">
<path d="M22.1342 1.85007C19.666 -0.61673 15.6513 -0.61673 13.1832 1.85007L7.96475 7.06847L13.8895 12.9932C15.1089 11.9777 16.6549 11.3419 18.3619 11.3419C19.341 11.3419 20.2728 11.5453 21.1205 11.9085L22.1342 10.8011C24.6016 8.33363 24.6016 4.31827 22.1342 1.85007Z" fill="currentColor"/>
<path d="M12.9033 13.9958L6.97032 8.06288L1.86292 13.1753C-0.604534 15.6428 -0.604534 19.6582 1.86292 22.1263C4.33103 24.593 8.39261 24.64 10.8608 22.1731L11.8962 21.1328C11.533 20.285 11.3296 19.3533 11.3296 18.3742C11.3297 16.7109 11.9343 15.2011 12.9033 13.9958Z" fill="currentColor"/>
<path d="M12.7361 18.3742C12.7361 21.2403 14.8873 23.5794 17.6587 23.9291V12.8193C14.8873 13.1689 12.7361 15.5079 12.7361 18.3742Z" fill="currentColor"/>
<path d="M19.0651 12.8193V23.9291C21.8364 23.5794 23.9877 21.2403 23.9877 18.3741C23.9877 15.508 21.8365 13.1689 19.0651 12.8193Z" fill="currentColor"/>
</g>
<defs>
<clipPath id="clip0_970_22118">
<rect width="24" height="24" fill="currentColor"/>
</clipPath>
</defs>
</svg>
