<svg width="24" height="24" viewBox="0 0 24 24" fill="none" xmlns="http://www.w3.org/2000/svg">
<g clip-path="url(#clip0_13_6834)">
<path d="M13.713 15.2587C13.4824 15.4892 13.1974 15.6653 12.8886 15.7683L9.90539 16.7627C9.69009 16.8345 9.46556 16.871 9.23841 16.871C8.67492 16.871 8.14519 16.6515 7.7468 16.2531C7.17816 15.6843 6.98297 14.8573 7.23727 14.0945L8.23167 11.1114C8.33456 10.8025 8.51081 10.5173 8.7412 10.2869L15.1844 3.84375H2.57812C1.15655 3.84375 0 5.0003 0 6.42188V21.4219C0 22.8435 1.15655 24 2.57812 24H17.5781C18.9997 24 20.1562 22.8435 20.1562 21.4219V8.81559L13.713 15.2587Z" fill="currentColor"/>
<path d="M9.73561 11.2813C9.6584 11.3585 9.60028 11.4526 9.56578 11.5561L8.57137 14.5392C8.48714 14.7919 8.5529 15.0704 8.7412 15.2587C8.92954 15.4471 9.20808 15.5129 9.46073 15.4286L12.4439 14.4342C12.5475 14.3997 12.6415 14.3416 12.7187 14.2644L21.5023 5.48081L18.5192 2.49773L9.73561 11.2813Z" fill="currentColor"/>
<path d="M22.3309 0.343215C21.8733 -0.114425 21.1313 -0.114425 20.6737 0.343215L19.5135 1.50332L22.4967 4.48645L23.6568 3.32634C24.1144 2.8687 24.1144 2.12671 23.6568 1.66907L22.3309 0.343215Z" fill="currentColor"/>
</g>
<defs>
<clipPath id="clip0_13_6834">
<rect width="24" height="24" fill="currentColor"/>
</clipPath>
</defs>
</svg>
