<svg width="24" height="24" viewBox="0 0 24 24" fill="none" xmlns="http://www.w3.org/2000/svg">
<path d="M12.544 9.53998V10.7466C12.544 11.1299 12.6205 11.4514 12.7716 11.7019C12.98 12.0476 13.322 12.2457 13.7104 12.2457C14.0909 12.2457 14.469 12.0604 14.8341 11.6953L18.8196 7.70984C19.6946 6.83478 19.6946 5.41095 18.8196 4.53589L14.8341 0.550415C14.469 0.18512 14.0909 0 13.7104 0C13.1298 0 12.544 0.463623 12.544 1.49908V2.59497C6.88568 2.92914 2.20148 7.27148 1.50531 12.9567C1.46631 13.2742 1.64685 13.5782 1.9444 13.6959C2.02862 13.7292 2.11633 13.7454 2.20294 13.7454C2.4223 13.7454 2.63507 13.6426 2.77057 13.4575C4.63788 10.9061 7.63605 9.38287 10.7906 9.38287C11.3751 9.38287 11.9628 9.43561 12.544 9.53998Z" fill="currentColor"/>
<path d="M22.0432 10.3041C21.7456 10.1862 21.4061 10.2843 21.217 10.5427C19.3499 13.0939 16.3517 14.6171 13.1971 14.6171C12.6127 14.6171 12.0249 14.5644 11.4437 14.46V13.2534C11.4437 12.2179 10.8578 11.7543 10.2773 11.7543C9.89685 11.7543 9.51874 11.9396 9.15344 12.3049L5.16797 16.2902C4.29309 17.1652 4.29309 18.589 5.16815 19.4643L9.15344 23.4496C9.51874 23.8149 9.89685 24 10.2773 24C10.8578 24 11.4437 23.5364 11.4437 22.5009V21.405C17.1022 21.0709 21.7863 16.7285 22.4824 11.0435C22.5214 10.7258 22.3409 10.4218 22.0432 10.3041Z" fill="currentColor"/>
</svg>
