<svg width="24" height="24" viewBox="0 0 24 24" fill="none" xmlns="http://www.w3.org/2000/svg">
<path d="M19.0312 9.9375H4.96875C3.80559 9.9375 2.85938 10.8837 2.85938 12.0469V21.8906C2.85938 23.0538 3.80559 24 4.96875 24H19.0312C20.1944 24 21.1406 23.0538 21.1406 21.8906V12.0469C21.1406 10.8837 20.1944 9.9375 19.0312 9.9375ZM12 21.1875C11.6117 21.1875 11.2969 20.8727 11.2969 20.4844C11.2969 20.096 11.6117 19.7812 12 19.7812C12.3883 19.7812 12.7031 20.096 12.7031 20.4844C12.7031 20.8727 12.3883 21.1875 12 21.1875ZM13.251 16.5581C12.9077 16.8108 12.7031 17.2146 12.7031 17.6389C12.7031 18.0276 12.3886 18.3585 12 18.3585C11.6114 18.3585 11.2969 18.0606 11.2969 17.6719C11.2969 16.7697 11.7158 15.9423 12.4161 15.4259C12.5987 15.292 12.7031 15.0853 12.7031 14.8594C12.7031 14.4714 12.3873 14.1562 12 14.1562C11.6127 14.1562 11.2969 14.4714 11.2969 14.8594C11.2969 15.248 10.9824 15.5625 10.5938 15.5625C10.2051 15.5625 9.89062 15.248 9.89062 14.8594C9.89062 13.6962 10.8368 12.75 12 12.75C13.1632 12.75 14.1094 13.6962 14.1094 14.8594C14.1094 15.5268 13.788 16.1619 13.251 16.5581Z" fill="currentColor"/>
<path d="M9.89062 8.53125V6.32812C9.89062 5.16497 10.8368 4.21875 12 4.21875C13.1632 4.21875 14.1094 5.16497 14.1094 6.32812V8.53125H18.3281V6.32812C18.3281 2.84095 15.4968 0 12 0C8.51048 0 5.67188 2.83861 5.67188 6.32812V8.53125H9.89062Z" fill="currentColor"/>
</svg>
