<svg width="24" height="24" viewBox="0 0 24 24" fill="none" xmlns="http://www.w3.org/2000/svg">
<g clip-path="url(#clip0_13_6441)">
<path d="M12.7031 12.75H11.2969V14.1562H12.7031V12.75Z" fill="currentColor"/>
<path d="M18.3281 18.375H16.9219V19.7812H18.3281V18.375Z" fill="currentColor"/>
<path d="M7.07812 12.75H5.67188V14.1562H7.07812V12.75Z" fill="currentColor"/>
<path d="M7.07812 18.375H5.67188V19.7812H7.07812V18.375Z" fill="currentColor"/>
<path d="M12.7031 18.375H11.2969V19.7812H12.7031V18.375Z" fill="currentColor"/>
<path d="M18.3281 12.75H16.9219V14.1562H18.3281V12.75Z" fill="currentColor"/>
<path d="M0.046875 9.9375V21.8906C0.046875 23.0538 0.993094 24 2.15625 24H21.8438C23.0069 24 23.9531 23.0538 23.9531 21.8906V9.9375H0.046875ZM8.48438 20.4844C8.48438 20.873 8.16989 21.1875 7.78125 21.1875H4.96875C4.58011 21.1875 4.26562 20.873 4.26562 20.4844V17.6719C4.26562 17.2832 4.58011 16.9688 4.96875 16.9688H7.78125C8.16989 16.9688 8.48438 17.2832 8.48438 17.6719V20.4844ZM8.48438 14.8594C8.48438 15.248 8.16989 15.5625 7.78125 15.5625H4.96875C4.58011 15.5625 4.26562 15.248 4.26562 14.8594V12.0469C4.26562 11.6582 4.58011 11.3438 4.96875 11.3438H7.78125C8.16989 11.3438 8.48438 11.6582 8.48438 12.0469V14.8594ZM14.1094 20.4844C14.1094 20.873 13.7949 21.1875 13.4062 21.1875H10.5938C10.2051 21.1875 9.89062 20.873 9.89062 20.4844V17.6719C9.89062 17.2832 10.2051 16.9688 10.5938 16.9688H13.4062C13.7949 16.9688 14.1094 17.2832 14.1094 17.6719V20.4844ZM14.1094 14.8594C14.1094 15.248 13.7949 15.5625 13.4062 15.5625H10.5938C10.2051 15.5625 9.89062 15.248 9.89062 14.8594V12.0469C9.89062 11.6582 10.2051 11.3438 10.5938 11.3438H13.4062C13.7949 11.3438 14.1094 11.6582 14.1094 12.0469V14.8594ZM19.7344 20.4844C19.7344 20.873 19.4199 21.1875 19.0312 21.1875H16.2188C15.8301 21.1875 15.5156 20.873 15.5156 20.4844V17.6719C15.5156 17.2832 15.8301 16.9688 16.2188 16.9688H19.0312C19.4199 16.9688 19.7344 17.2832 19.7344 17.6719V20.4844ZM19.7344 14.8594C19.7344 15.248 19.4199 15.5625 19.0312 15.5625H16.2188C15.8301 15.5625 15.5156 15.248 15.5156 14.8594V12.0469C15.5156 11.6582 15.8301 11.3438 16.2188 11.3438H19.0312C19.4199 11.3438 19.7344 11.6582 19.7344 12.0469V14.8594Z" fill="currentColor"/>
<path d="M19.0312 0C18.2546 0 17.625 0.629578 17.625 1.40625V4.21875C17.625 4.99542 18.2546 5.625 19.0312 5.625C19.8079 5.625 20.4375 4.99542 20.4375 4.21875V1.40625C20.4375 0.629578 19.8079 0 19.0312 0Z" fill="currentColor"/>
<path d="M21.8438 2.8125V4.21875C21.8438 5.76989 20.5824 7.03125 19.0312 7.03125C17.4801 7.03125 16.2188 5.76989 16.2188 4.21875V2.8125H7.78125V4.21875C7.78125 5.76989 6.51989 7.03125 4.96875 7.03125C3.41761 7.03125 2.15625 5.76989 2.15625 4.21875V2.8125C0.993094 2.8125 0.046875 3.75872 0.046875 4.92188V8.53125H23.9531V4.92188C23.9531 3.75872 23.0069 2.8125 21.8438 2.8125Z" fill="currentColor"/>
<path d="M4.96875 0C4.19208 0 3.5625 0.629578 3.5625 1.40625V4.21875C3.5625 4.99542 4.19208 5.625 4.96875 5.625C5.74542 5.625 6.375 4.99542 6.375 4.21875V1.40625C6.375 0.629578 5.74542 0 4.96875 0Z" fill="currentColor"/>
</g>
<defs>
<clipPath id="clip0_13_6441">
<rect width="24" height="24" fill="currentColor"/>
</clipPath>
</defs>
</svg>
