<svg width="24" height="24" viewBox="0 0 24 24" fill="none" xmlns="http://www.w3.org/2000/svg">
<g clip-path="url(#clip0_13_6473)">
<path d="M23.8682 11.5907C23.6539 11.2914 18.4997 4.26562 12 4.26562C5.50017 4.26562 0.346032 11.2914 0.131813 11.5908C-0.0439682 11.8352 -0.0439682 12.1648 0.131813 12.4093C0.346032 12.7086 5.50022 19.7344 12 19.7344C18.4997 19.7344 23.6539 12.7086 23.8681 12.4092C24.044 12.1648 24.044 11.8352 23.8682 11.5907ZM12 16.9219C9.28631 16.9219 7.07808 14.7136 7.07808 12C7.07808 9.28636 9.28631 7.07812 12 7.07812C14.7136 7.07812 16.9218 9.28636 16.9218 12C16.9218 14.7136 14.7136 16.9219 12 16.9219Z" fill="currentColor"/>
<path d="M12 9.89062C10.8368 9.89062 9.89058 10.8368 9.89058 12C9.89058 13.1632 10.8368 14.1094 12 14.1094C13.1631 14.1094 14.1093 13.1632 14.1093 12C14.1094 10.8368 13.1632 9.89062 12 9.89062Z" fill="currentColor"/>
</g>
<defs>
<clipPath id="clip0_13_6473">
<rect width="24" height="24" fill="currentColor"/>
</clipPath>
</defs>
</svg>
