<svg width="24" height="24" viewBox="0 0 24 24" fill="none" xmlns="http://www.w3.org/2000/svg">
<g clip-path="url(#clip0_13_6481)">
<path d="M21.5325 4.7249L22.5804 4.72565L22.5814 3.31964L19.3635 3.3173L18.9483 6.5594L20.3432 6.73795L20.4806 5.66465C21.8501 7.48715 22.5921 9.69215 22.5938 12.0105C22.5959 14.8396 21.496 17.4985 19.4968 19.4974C17.4995 21.4944 14.8434 22.5939 12.0168 22.5939H12.0088C9.17892 22.5918 6.5176 21.488 4.515 19.4857C2.51236 17.4835 1.40832 14.8225 1.40625 11.9931C1.40419 9.16397 2.50407 6.50508 4.50324 4.50623C7.50263 1.50736 11.9887 0.59006 15.932 2.16933L16.4549 0.864139C11.9883 -0.924799 6.9068 0.114561 3.50893 3.51201C1.24378 5.77673 -0.00234045 8.78906 3.30013e-06 11.9941C0.00234705 15.1987 1.25264 18.2124 3.52055 20.48C5.78846 22.7475 8.80261 23.9977 12.0077 24H12.0167C15.2188 23.9999 18.2282 22.7542 20.4911 20.4916C22.7562 18.2269 24.0023 15.2146 24 12.0096C23.9981 9.34219 23.1308 6.80756 21.5325 4.7249Z" fill="currentColor"/>
<path d="M12 4.69026C7.96781 4.69026 4.6875 7.97011 4.6875 12.0018C4.6875 16.0335 7.96781 19.3134 12 19.3134C16.0322 19.3134 19.3125 16.0335 19.3125 12.0018C19.3125 7.97011 16.0322 4.69026 12 4.69026ZM15.0141 12.705H11.2969V8.98823H12.7031V11.2987H15.0141V12.705Z" fill="currentColor"/>
</g>
<defs>
<clipPath id="clip0_13_6481">
<rect width="24" height="24" fill="currentColor"/>
</clipPath>
</defs>
</svg>
