<svg width="24" height="24" viewBox="0 0 24 24" fill="none" xmlns="http://www.w3.org/2000/svg">
<path d="M22.5938 1.17188H1.40625C0.630937 1.17188 0 1.80281 0 2.57812V16.5469C0 17.3222 0.630937 17.9531 1.40625 17.9531H22.5938C23.3691 17.9531 24 17.3222 24 16.5469V2.57812C24 1.80281 23.3691 1.17188 22.5938 1.17188Z" fill="currentColor"/>
<path d="M19.5 21.4219H15.7031V19.3594H8.29688V21.4219H4.5C4.11187 21.4219 3.79688 21.7369 3.79688 22.125C3.79688 22.5131 4.11187 22.8281 4.5 22.8281H19.5C19.8881 22.8281 20.2031 22.5131 20.2031 22.125C20.2031 21.7369 19.8881 21.4219 19.5 21.4219Z" fill="currentColor"/>
</svg>
