<svg width="24" height="24" viewBox="0 0 24 24" fill="none" xmlns="http://www.w3.org/2000/svg">
<g clip-path="url(#clip0_13_6850)">
<path d="M15.3873 0C10.6307 0.000468749 6.77567 3.85546 6.7752 8.61205C6.77539 10.7084 7.52572 12.6283 8.77053 14.1216L7.00381 15.8883C6.99678 15.8953 6.99566 15.9034 6.989 15.9105C6.11708 15.4982 5.04941 15.6302 4.33012 16.3494L0.687654 19.9904C-0.228282 20.9064 -0.228282 22.3958 0.687654 23.3117C1.60532 24.2294 3.09126 24.2294 4.00893 23.3117L7.65144 19.6707C8.37261 18.9496 8.50423 17.8821 8.08962 17.0099C8.09651 17.0034 8.10425 17.0023 8.11105 16.9955L9.87776 15.2288C11.3711 16.4736 13.291 17.2239 15.3873 17.224C20.1439 17.2236 23.9989 13.3686 23.9993 8.61209C23.9989 3.85546 20.1439 0.000468749 15.3873 0ZM15.3873 14.0924C12.3631 14.091 9.90832 11.6362 9.90687 8.61209C9.90828 5.58786 12.363 3.13303 15.3873 3.13167C18.4115 3.13303 20.8663 5.58782 20.8677 8.61209C20.8662 11.6362 18.4115 14.091 15.3873 14.0924Z" fill="currentColor"/>
</g>
<defs>
<clipPath id="clip0_13_6850">
<rect width="24" height="24" fill="currentColor"/>
</clipPath>
</defs>
</svg>
