<svg width="24" height="24" viewBox="0 0 24 24" fill="none" xmlns="http://www.w3.org/2000/svg">
<path d="M3.22467 4.51298H7.33172V0.41161L3.22467 4.51298Z" fill="currentColor"/>
<path d="M17.0906 0H8.73797V5.21611C8.73797 5.60442 8.42316 5.91923 8.03484 5.91923H2.8125V19.9078C2.8125 20.2961 3.12731 20.6109 3.51562 20.6109H17.0906C17.4789 20.6109 17.7938 20.2961 17.7938 19.9078V0.703125C17.7938 0.314813 17.4789 0 17.0906 0Z" fill="currentColor"/>
<path d="M20.4844 3.38906H19.2V19.9078C19.2 21.0709 18.2537 22.0172 17.0906 22.0172H6.20625V23.2969C6.20625 23.6852 6.52106 24 6.90937 24H20.4844C20.8727 24 21.1875 23.6852 21.1875 23.2969V4.09219C21.1875 3.70387 20.8727 3.38906 20.4844 3.38906Z" fill="currentColor"/>
</svg>
