<svg width="24" height="24" viewBox="0 0 24 24" fill="none" xmlns="http://www.w3.org/2000/svg">
<path d="M22.5455 22.9091V16H21.9065H20.3636H18.8209H14.5455H13.4545C12.8521 16 12.3636 15.5116 12.3636 14.9091V13.8182V9.54277V8V6.45724V5.81818H6.90909C6.30662 5.81818 5.81818 6.30662 5.81818 6.90909V15.1485V18.9091V21.0909V22.2791V22.9091C5.81818 23.5116 6.30662 24 6.90909 24H21.4545C22.057 24 22.5455 23.5116 22.5455 22.9091Z" fill="currentColor"/>
<path d="M17.0909 0.727273H11.5729C11.4231 0.303855 11.0202 0 10.5455 0H9.09091C8.61615 0 8.21338 0.303855 8.06342 0.727273H2.54545C1.94298 0.727273 1.45455 1.21571 1.45455 1.81818V20C1.45455 20.6025 1.94298 21.0909 2.54545 21.0909H3.63636V18.9091V15.1485V2.90909H5.8816C6.03156 3.33251 6.43433 3.63636 6.90909 3.63636H12.7273C13.202 3.63636 13.6048 3.33251 13.7548 2.90909H16V4.83135C16.03 4.85818 16.0596 4.88582 16.0883 4.91455L17.5428 6.36909L18.1818 7.008V1.81818C18.1818 1.21571 17.6934 0.727273 17.0909 0.727273Z" fill="currentColor"/>
<path d="M16 7.91178L14.5455 6.45724V9.54276V13.8182H18.8209H21.9065L18.1818 10.0936L16 7.91178Z" fill="currentColor"/>
</svg>
