<svg width="24" height="24" viewBox="0 0 24 24" fill="none" xmlns="http://www.w3.org/2000/svg">
<path d="M19.6244 4.15288C19.5881 4.11131 19.5502 4.07071 19.5108 4.03129L16.2002 0.716812C16.1988 0.715453 16.1975 0.714093 16.1962 0.712828C16.0363 0.5535 15.7626 0.671578 15.7626 0.897281V4.32431C15.7626 4.46709 15.8783 4.58277 16.021 4.58277H19.4305C19.6531 4.58277 19.7708 4.3207 19.6244 4.15288Z" fill="currentColor"/>
<path d="M19.9674 6.34785H14.8397C14.3529 6.34785 13.9739 5.95007 13.9976 5.46383C13.9976 5.46336 13.9975 5.46285 13.9975 5.46238V0.258421C13.9975 0.115687 13.8818 0 13.7391 0H5.39578C4.50014 0 3.77414 0.725999 3.77414 1.62159V22.3784C3.77414 23.274 4.50014 24 5.39573 24H18.6042C19.4998 24 20.2258 23.274 20.2258 22.3784V6.60627C20.2258 6.46358 20.1101 6.34785 19.9674 6.34785ZM7.87748 5.70121H9.17558V4.42218C9.17558 3.93477 9.57074 3.53962 10.0581 3.53962C10.5455 3.53962 10.9407 3.93477 10.9407 4.42218V5.70116H12.2389C12.7263 5.70116 13.1215 6.09632 13.1215 6.58372C13.1215 7.07113 12.7263 7.46628 12.2389 7.46628H10.9408V8.78366C10.9408 9.27106 10.5456 9.66622 10.0582 9.66622C9.57083 9.66622 9.17568 9.27106 9.17568 8.78366V7.46628H7.87757C7.39016 7.46628 6.99501 7.07113 6.99501 6.58372C6.99501 6.09632 7.39007 5.70121 7.87748 5.70121ZM16.145 19.6517H7.8546C7.3672 19.6517 6.97204 19.2566 6.97204 18.7692C6.97204 18.2818 7.3672 17.8866 7.8546 17.8866H16.145C16.6324 17.8866 17.0276 18.2818 17.0276 18.7692C17.0276 19.2566 16.6324 19.6517 16.145 19.6517ZM16.1452 16.589H7.85479C7.36738 16.589 6.97223 16.1939 6.97223 15.7065C6.97223 15.2191 7.36738 14.8239 7.85479 14.8239H16.1452C16.6326 14.8239 17.0277 15.2191 17.0277 15.7065C17.0277 16.1939 16.6326 16.589 16.1452 16.589ZM16.1452 13.5295H7.85479C7.36738 13.5295 6.97223 13.1343 6.97223 12.6469C6.97223 12.1595 7.36738 11.7644 7.85479 11.7644H16.1452C16.6326 11.7644 17.0277 12.1595 17.0277 12.6469C17.0277 13.1343 16.6326 13.5295 16.1452 13.5295Z" fill="currentColor"/>
</svg>
