<svg width="24" height="24" viewBox="0 0 24 24" fill="none" xmlns="http://www.w3.org/2000/svg">
<g clip-path="url(#clip0_13_6848)">
<path d="M15.4667 18.7422H8.53331C8.09152 18.7422 7.7333 19.1004 7.7333 19.5422C7.7333 19.9841 8.09147 20.3422 8.53331 20.3422H15.4666C15.9084 20.3422 16.2667 19.9841 16.2667 19.5422C16.2667 19.1004 15.9085 18.7422 15.4667 18.7422Z" fill="currentColor"/>
<path d="M15.4667 16.219H8.53331C8.09152 16.219 7.7333 16.5772 7.7333 17.019C7.7333 17.4609 8.09147 17.8191 8.53331 17.8191H15.4666C15.9084 17.8191 16.2667 17.4609 16.2667 17.019C16.2667 16.5772 15.9085 16.219 15.4667 16.219Z" fill="currentColor"/>
<path d="M22.1333 6.27689H19.5879V1.64681C19.5879 1.20502 19.2297 0.846797 18.7879 0.846797H5.21212C4.77033 0.846797 4.41211 1.20497 4.41211 1.64681V6.27689H1.86666C0.837375 6.27689 0 7.11431 0 8.14359V16.1921C0 17.2214 0.837375 18.0588 1.86666 18.0588H4.41225V22.3532C4.41225 22.795 4.77042 23.1532 5.21227 23.1532H18.7877C19.2295 23.1532 19.5877 22.795 19.5877 22.3532V18.0588H22.1333C23.1626 18.0588 24 17.2214 24 16.1921V8.14359C24 7.11436 23.1626 6.27689 22.1333 6.27689ZM6.01209 2.44683H17.9879V6.27689H6.01209V2.44683ZM17.9877 21.5532H6.01228C6.01228 21.3968 6.01228 15.2015 6.01228 15.0081H17.9878C17.9877 15.2063 17.9877 21.4028 17.9877 21.5532ZM18.7879 10.9745H16.7515C16.3097 10.9745 15.9515 10.6163 15.9515 10.1745C15.9515 9.73261 16.3096 9.37444 16.7515 9.37444H18.7879C19.2297 9.37444 19.5879 9.73261 19.5879 10.1745C19.5879 10.6163 19.2297 10.9745 18.7879 10.9745Z" fill="currentColor"/>
</g>
<defs>
<clipPath id="clip0_13_6848">
<rect width="24" height="24" fill="currentColor"/>
</clipPath>
</defs>
</svg>
