<svg width="24" height="24" viewBox="0 0 24 24" fill="none" xmlns="http://www.w3.org/2000/svg">
<path d="M22.5707 9.8595L3.20691 1.82466C2.39114 1.48612 1.46953 1.63505 0.801796 2.21311C0.134062 2.79127 -0.145219 3.68208 0.0730309 4.53787L1.79658 11.2969H10.2353C10.6236 11.2969 10.9385 11.6117 10.9385 12C10.9385 12.3884 10.6237 12.7032 10.2353 12.7032H1.79658L0.0730309 19.4622C-0.145219 20.318 0.134015 21.2088 0.801796 21.7869C1.47089 22.3662 2.39259 22.5133 3.20695 22.1754L22.5707 14.1406C23.4524 13.7748 24 12.9546 24 12C24 11.0455 23.4524 10.2253 22.5707 9.8595Z" fill="currentColor"/>
</svg>
