<svg width="24" height="24" viewBox="0 0 24 24" fill="none" xmlns="http://www.w3.org/2000/svg">
<g clip-path="url(#clip0_13_6847)">
<path d="M23.7585 9.67373L16.3381 16.2405L23.76 22.839C23.9082 22.5507 24 22.2287 24 21.8827V10.6327C24 10.2856 23.9078 9.96281 23.7585 9.67373Z" fill="currentColor"/>
<path d="M15.2812 17.1819L13.3891 18.867C12.5973 19.5598 11.4033 19.5592 10.6109 18.867L8.71875 17.1819L1.26216 23.8114C1.52199 23.926 1.80769 23.9921 2.10938 23.9921H21.8906C22.1923 23.9921 22.4781 23.926 22.7378 23.8114L15.2812 17.1819Z" fill="currentColor"/>
<path d="M0.241453 9.67373C0.09225 9.96281 0 10.2856 0 10.6328V21.8827C0 22.2287 0.0917344 22.5507 0.24 22.8391L7.66186 16.2406L0.241453 9.67373Z" fill="currentColor"/>
<path d="M21.8906 8.52333H15.5156V12.039C15.5156 13.2021 14.5694 14.1483 13.4062 14.1483H10.5937C9.43059 14.1483 8.48437 13.2021 8.48437 12.039V8.52333H2.10937C1.80886 8.52333 1.52409 8.58858 1.26516 8.7023L11.5365 17.8082C11.8015 18.0389 12.1984 18.0389 12.4635 17.8082L22.7348 8.7023C22.4759 8.58858 22.1911 8.52333 21.8906 8.52333Z" fill="currentColor"/>
<path d="M16.7811 5.99241L12.5624 0.273656C12.2973 -0.0806719 11.7027 -0.0806719 11.4376 0.273656L7.21889 5.99241C6.87239 6.45333 7.20225 7.11712 7.78125 7.11712H9.89062V12.039C9.89062 12.4276 10.2051 12.7421 10.5937 12.7421H13.4062C13.7949 12.7421 14.1094 12.4276 14.1094 12.039V7.11712H16.2188C16.7978 7.11712 17.1276 6.45333 16.7811 5.99241Z" fill="currentColor"/>
</g>
<defs>
<clipPath id="clip0_13_6847">
<rect width="24" height="24" fill="currentColor"/>
</clipPath>
</defs>
</svg>
