<svg width="24" height="24" viewBox="0 0 24 24" fill="none" xmlns="http://www.w3.org/2000/svg">
<g clip-path="url(#clip0_13_6504)">
<path d="M20.8337 3.93964L14.0352 20.2811C13.9819 20.4136 13.8481 20.5007 13.6996 20.5007H12.0517C11.933 20.5007 11.8218 20.4453 11.7546 20.3525C11.6874 20.2594 11.673 20.1419 11.7155 20.0358L18.4639 3.69441C18.5175 3.56155 18.6507 3.47448 18.7998 3.47448H20.4977C20.6167 3.47448 20.7276 3.52992 20.7948 3.62331C20.8617 3.7161 20.8764 3.8345 20.8337 3.93964ZM22.1885 16.6219C21.141 16.6219 20.3519 17.4016 20.3519 18.4364C20.3519 19.4704 21.1202 20.25 22.1391 20.25H22.1638C23.2278 20.25 24 19.4869 24 18.4364C24 17.385 23.2381 16.6219 22.1885 16.6219ZM6.62822 10.4121C4.12558 9.49143 3.68512 8.86328 3.68512 7.88326C3.68512 6.98246 4.47836 6.07323 6.25043 6.07323C7.8351 6.07323 8.82899 6.5872 9.09682 6.74506C9.24143 6.82972 9.41647 6.85141 9.58849 6.79356C9.7566 6.73542 9.88584 6.60798 9.94308 6.4453L10.5375 4.77597C10.6297 4.51898 10.5203 4.23428 10.2775 4.09871C9.81806 3.84294 8.51326 3.24823 6.32514 3.24823C2.80542 3.24823 0.347362 5.25077 0.347362 8.11855C0.347362 10.4022 1.91456 12.0537 5.13634 13.1663C7.44767 13.9867 7.89988 14.7398 7.89988 15.7632C7.89988 17.1024 6.81109 17.9023 4.98751 17.9023C3.73393 17.9023 2.44661 17.557 1.45573 16.9539C1.30721 16.8638 1.12042 16.8439 0.955625 16.8996C0.78601 16.9584 0.652247 17.0937 0.597717 17.2591L0.0280172 18.976C-0.052723 19.2191 0.044587 19.4854 0.263911 19.6243C1.29365 20.2769 3.21785 20.7502 4.83898 20.7502C9.56228 20.7502 11.2379 17.9746 11.2379 15.5976C11.2385 13.1425 9.90332 11.6401 6.62822 10.4121Z" fill="currentColor"/>
</g>
<defs>
<clipPath id="clip0_13_6504">
<rect width="24" height="24" fill="currentColor"/>
</clipPath>
</defs>
</svg>
