<svg width="24" height="24" viewBox="0 0 24 24" fill="none" xmlns="http://www.w3.org/2000/svg">
<g clip-path="url(#clip0_13_6830)">
<path d="M23.5013 17.9977L15.0233 2.41284C13.6612 0.119668 10.3407 0.116621 8.9767 2.41284L0.499076 17.9977C-0.893392 20.3409 0.792467 23.3082 3.52167 23.3082H20.478C23.205 23.3082 24.8938 20.3433 23.5013 17.9977ZM12 20.4957C11.2248 20.4957 10.5937 19.8646 10.5937 19.0894C10.5937 18.3142 11.2248 17.6832 12 17.6832C12.7752 17.6832 13.4062 18.3142 13.4062 19.0894C13.4062 19.8646 12.7752 20.4957 12 20.4957ZM13.4062 14.8707C13.4062 15.6459 12.7752 16.2769 12 16.2769C11.2248 16.2769 10.5937 15.6459 10.5937 14.8707V7.83942C10.5937 7.0642 11.2248 6.43317 12 6.43317C12.7752 6.43317 13.4062 7.0642 13.4062 7.83942V14.8707Z" fill="currentColor"/>
</g>
<defs>
<clipPath id="clip0_13_6830">
<rect width="24" height="24" fill="currentColor"/>
</clipPath>
</defs>
</svg>
